<?xml version="1.0" encoding="UTF-8" standalone="no"?>
<!-- Created with Inkscape (http://www.inkscape.org/) -->

<svg
   xmlns:dc="http://purl.org/dc/elements/1.1/"
   xmlns:cc="http://creativecommons.org/ns#"
   xmlns:rdf="http://www.w3.org/1999/02/22-rdf-syntax-ns#"
   xmlns:svg="http://www.w3.org/2000/svg"
   xmlns="http://www.w3.org/2000/svg"
   xmlns:sodipodi="http://sodipodi.sourceforge.net/DTD/sodipodi-0.dtd"
   xmlns:inkscape="http://www.inkscape.org/namespaces/inkscape"
   width="2880"
   height="1620"
   id="svg2"
   version="1.1"
   inkscape:version="0.48.4 r9939"
   sodipodi:docname="RasPi mount v2.svg">
  <defs
     id="defs4" />
  <sodipodi:namedview
     id="base"
     pagecolor="#ffffff"
     bordercolor="#666666"
     borderopacity="1.0"
     inkscape:pageopacity="0.0"
     inkscape:pageshadow="2"
     inkscape:zoom="1.4"
     inkscape:cx="473.17213"
     inkscape:cy="1423.0847"
     inkscape:document-units="px"
     inkscape:current-layer="g3061"
     showgrid="false"
     units="in"
     inkscape:window-width="1366"
     inkscape:window-height="715"
     inkscape:window-x="-5"
     inkscape:window-y="-5"
     inkscape:window-maximized="1" />
  <metadata
     id="metadata7">
    <rdf:RDF>
      <cc:Work
         rdf:about="">
        <dc:format>image/svg+xml</dc:format>
        <dc:type
           rdf:resource="http://purl.org/dc/dcmitype/StillImage" />
        <dc:title></dc:title>
      </cc:Work>
    </rdf:RDF>
  </metadata>
  <g
     inkscape:label="Layer 1"
     inkscape:groupmode="layer"
     id="layer1"
     transform="translate(0,567.64025)">
    <g
       transform="matrix(1.25,0,0,-1.25,1187.1071,1053.8241)"
       inkscape:label="battery base"
       id="g2993">
      <path
         inkscape:connector-curvature="0"
         d="m -880.2563,1275.9243 1,0.1 1,0.4 0.79999,0.6 0.7,0.7 0.4,0.9 0.3,1 0,1 -0.3,0.9 -0.4,0.9 -0.7,0.8 -0.79999,0.5 -1,0.4 -1,0.1 -0.9,-0.1 -1,-0.4 -0.8,-0.5 -0.7,-0.8 -0.4,-0.9 -0.3,-0.9 0,-1 0.3,-1 0.4,-0.9 0.7,-0.7 0.8,-0.6 1,-0.4 0.9,-0.1 m 164.79998,0 1,0.1 0.9,0.4 0.8,0.6 0.7,0.7 0.5,0.9 0.2,1 0,1 -0.2,0.9 -0.5,0.9 -0.7,0.8 -0.8,0.5 -0.9,0.4 -1,0.1 -1,-0.1 -0.9,-0.4 -0.9,-0.5 -0.6,-0.8 -0.5,-0.9 -0.2,-0.9 0,-1 0.2,-1 0.5,-0.9 0.6,-0.7 0.9,-0.6 0.9,-0.4 1,-0.1 m 0,-146.4 1,0.2 0.9,0.3 0.8,0.6 0.7,0.7 0.5,0.9 0.2,1 0,1 -0.2,1 -0.5,0.8 -0.7,0.8 -0.8,0.5 -0.9,0.4 -1,0.1 -1,-0.1 -0.9,-0.4 -0.9,-0.5 -0.6,-0.8 -0.5,-0.8 -0.2,-1 0,-1 0.2,-1 0.5,-0.9 0.6,-0.7 0.9,-0.6 0.9,-0.3 1,-0.2 m -164.79998,0 1,0.2 1,0.3 0.79999,0.6 0.7,0.7 0.4,0.9 0.3,1 0,1 -0.3,1 -0.4,0.8 -0.7,0.8 -0.79999,0.5 -1,0.4 -1,0.1 -0.9,-0.1 -1,-0.4 -0.8,-0.5 -0.7,-0.8 -0.4,-0.8 -0.3,-1 0,-1 0.3,-1 0.4,-0.9 0.7,-0.7 0.8,-0.6 1,-0.3 0.9,-0.2 m 100.39998,3.4 18,0 m -18,-9 0,9 m -35.99999,0 0,-9 m -18,9 18,0 m -18,-9 0,9 m 0,-9 -59.59999,0 m 70.99999,165.2 -107.39999,0 m 107.39999,0 0.1,-0.2 0.1,-0.1 m 0,0 48.79999,0 m 0,0 0.1,0.2 0.2,0.1 m 107.3,0 -107.3,0 m 11.3,-156.2 0,-9 m 42.6,137.4 1,0.1 0.8,0.4 0.8,0.5 0.6,0.8 0.4,0.8 0.2,1 0,0.9 -0.3,0.9 -0.6,0.8 -0.7,0.7 -0.8,0.5 -0.9,0.2 -1,0 -0.9,-0.2 -0.8,-0.5 -0.7,-0.7 -0.5,-0.8 -0.3,-0.9 -0.1,-0.9 0.2,-1 0.4,-0.8 0.6,-0.8 0.8,-0.5 0.9,-0.4 0.9,-0.1 m 46.5,0 1,0.1 0.9,0.4 0.7,0.5 0.6,0.8 0.4,0.8 0.2,1 0,0.9 -0.3,0.9 -0.5,0.8 -0.7,0.7 -0.9,0.5 -0.9,0.2 -1,0 -0.9,-0.2 -0.8,-0.5 -0.7,-0.7 -0.5,-0.8 -0.3,-0.9 -0.1,-0.9 0.2,-1 0.4,-0.8 0.6,-0.8 0.8,-0.5 0.9,-0.4 0.9,-0.1 m -4.5,-88.4 0.9,0.1 0.9,0.4 0.8,0.5 0.6,0.8 0.4,0.9 0.2,0.9 -0.1,0.9 -0.3,1 -0.5,0.8 -0.7,0.6 -0.8,0.5 -0.9,0.2 -1,0 -0.9,-0.2 -0.9,-0.5 -0.7,-0.6 -0.5,-0.8 -0.3,-1 0,-0.9 0.2,-0.9 0.4,-0.9 0.6,-0.8 0.7,-0.5 0.9,-0.4 1,-0.1 m -37.5,0 1,0.1 0.9,0.4 0.8,0.5 0.6,0.8 0.4,0.9 0.1,0.9 0,0.9 -0.3,1 -0.5,0.8 -0.7,0.6 -0.9,0.5 -0.9,0.2 -0.9,0 -1,-0.2 -0.8,-0.5 -0.7,-0.6 -0.5,-0.8 -0.3,-1 -0.1,-0.9 0.2,-0.9 0.4,-0.9 0.6,-0.8 0.8,-0.5 0.9,-0.4 0.9,-0.1 m -215.09998,116.2 -2.2,-5.4 -2,-5.5 -1.8,-5.6 -1.6,-5.6 -1.3,-5.7 -1.1,-5.7 -0.8,-5.8 -0.6,-5.8 -0.4,-5.8 -0.2,-5.8 0.1,-5.8 0.3,-5.8 0.6,-5.8 0.8,-5.8 1,-5.8 1.2,-5.7 1.5,-5.6 1.7,-5.6 2,-5.5 2.1,-5.4 2.4,-5.3 2.6,-5.2 2.8,-5.1 3,-5 3.2,-4.9 3.4,-4.7 3.6,-4.6 3.7,-4.5 4,-4.3 4.1,-4.1 4.3,-4 m 191.19998,0 4.3,4 4.1,4.1 4,4.3 3.8,4.5 3.5,4.6 3.4,4.7 3.2,4.9 3,5 2.8,5.1 2.6,5.2 2.4,5.3 2.2,5.4 1.9,5.5 1.7,5.6 1.5,5.6 1.2,5.7 1.1,5.8 0.7,5.8 0.6,5.8 0.3,5.8 0.1,5.8 -0.1,5.8 -0.4,5.8 -0.7,5.8 -0.8,5.8 -1.1,5.7 -1.3,5.7 -1.6,5.6 -1.7,5.6 -2,5.5 -2.3,5.4 m -114,-165.2 -35.99999,0 m 113.59999,0 -59.6,0"
         style="fill:none;stroke:#000000;stroke-width:0.70899999;stroke-linecap:round;stroke-linejoin:round;stroke-miterlimit:10;stroke-opacity:1;stroke-dasharray:none"
         id="path2997" />
      <g
         id="g3010"
         inkscape:label="bottom"
         transform="translate(-990.4055,1029.063)">
        <g
           id="g3012"
           transform="translate(157.3,52.4)">
          <path
             inkscape:connector-curvature="0"
             d="m 0,0 0,9 m 0,0 -18,0 m 0,0 0,-9 m -18,0 0,9 m 0,0 -18,0 m 0,0 0,-9 m -45,18 0.1,-1.7 0.3,-1.6 0.3,-1.7 0.6,-1.5 0.6,-1.6 0.8,-1.4 1,-1.4 1,-1.3 1.2,-1.1 1.3,-1.1 1.4,-0.9 1.4,-0.8 1.5,-0.7 1.6,-0.5 1.6,-0.4 1.7,-0.3 1.6,0 m 0,36 -1.6,-0.1 -1.7,-0.2 -1.6,-0.4 -1.6,-0.6 -1.5,-0.6 -1.4,-0.8 -1.4,-1 -1.3,-1 -1.2,-1.2 -1,-1.3 -1,-1.4 -0.8,-1.4 -0.6,-1.5 -0.6,-1.6 -0.3,-1.6 -0.3,-1.7 L -99,18 m 45,18 0,-9 m 0,0 18,0 m 0,0 0,9 m 18,0 0,-9 m 0,0 18,0 m 0,0 0,9 m 18,0 0,-9 m 0,0 18,0 m 0,0 0,9 m 18,0 0,-9 m 0,0 18,0 m 0,0 0,9 m 45,-18 0,1.6 -0.3,1.7 -0.3,1.6 -0.6,1.6 -0.6,1.5 -0.9,1.4 -0.9,1.4 -1.1,1.3 -1.1,1.2 -1.3,1 -1.4,1 -1.4,0.8 -1.6,0.6 -1.5,0.6 -1.6,0.4 -1.7,0.2 L 99,36 m 0,-36 1.7,0 1.7,0.3 1.6,0.4 1.5,0.5 1.6,0.7 1.4,0.8 1.4,0.9 1.3,1.1 1.1,1.1 1.1,1.3 0.9,1.4 0.9,1.4 0.6,1.6 0.6,1.5 0.3,1.7 0.3,1.6 0,1.7 M 72,0 72,9 m 0,0 -18,0 m 0,0 0,-9 m -18,0 0,9 m 0,0 -18,0 m 0,0 0,-9 m 68.8,13.6 0.8,0.1 0.8,0.3 0.7,0.3 0.7,0.5 0.5,0.7 0.4,0.7 0.3,0.7 0.1,0.9 0,0.8 -0.2,0.8 -0.4,0.7 -0.4,0.7 -0.6,0.6 -0.7,0.4 -0.8,0.3 -0.8,0.2 -0.8,0 -0.8,-0.2 -0.8,-0.3 -0.7,-0.4 -0.6,-0.6 -0.4,-0.7 -0.4,-0.7 -0.2,-0.8 0,-0.8 0.1,-0.9 0.3,-0.7 0.4,-0.7 0.5,-0.7 0.7,-0.5 0.7,-0.3 0.8,-0.3 0.8,-0.1 m -155.5,8.7 -0.8,-0.1 -0.8,-0.2 -0.8,-0.4 -0.6,-0.5 -0.5,-0.6 -0.4,-0.7 -0.3,-0.8 -0.1,-0.8 0,-0.8 0.2,-0.8 0.3,-0.8 0.5,-0.7 0.6,-0.5 0.7,-0.5 0.8,-0.3 0.8,-0.1 0.8,0 0.8,0.1 0.8,0.3 0.7,0.5 0.5,0.5 0.5,0.7 0.4,0.8 0.2,0.8 0,0.8 -0.1,0.8 -0.3,0.8 -0.4,0.7 -0.5,0.6 -0.7,0.5 -0.7,0.4 -0.8,0.2 -0.8,0.1 M 99,36 72,36 M -81,0 -54,0 m 0,36 -27,0 m 135,0 -18,0 m -54,0 -18,0 M 18,36 0,36 M 72,0 99,0 M -36,0 -18,0 M 36,0 54,0 M 0,0 18,0"
             style="fill:none;stroke:#000000;stroke-width:0.70899999;stroke-linecap:round;stroke-linejoin:round;stroke-miterlimit:10;stroke-opacity:1;stroke-dasharray:none"
             id="path3014" />
        </g>
      </g>
      <g
         id="g3027"
         inkscape:label="camera mount"
         transform="translate(-691.8735,953.85316)">
        <g
           id="g3029"
           transform="translate(211.6,84.6)">
          <path
             sodipodi:nodetypes="cccccccccccccccccccccccccccccccccccccccccccccccccccccccccccccccccccccccccccccccccccccccccccccccccccccccccccccccccccccccccccccccccccccccccccccccccccccccccccccccccccccccccccccccccccccccccccccccccccccccccccccccccccccccccccccccccccccccccccccccccccccccccccccccccccccccccccccccccccccccccccccccccccccccccccccccccccc"
             inkscape:connector-curvature="0"
             d="M 0,0 0.1,0.7 0.3,1.3 0.7,1.9 1.2,2.4 1.8,2.8 2.4,3 3.1,3.1 3.8,3 4.5,2.8 5.1,2.4 5.5,1.9 5.9,1.3 6.1,0.7 6.2,0 6.1,-0.7 5.9,-1.4 5.5,-1.9 5.1,-2.4 4.5,-2.8 3.8,-3 3.1,-3.1 2.4,-3 1.8,-2.8 1.2,-2.4 0.7,-1.9 0.3,-1.4 0.1,-0.7 0,0 m -60.7,0 0,0.7 0.3,0.6 0.3,0.6 0.5,0.5 0.6,0.4 0.7,0.2 0.7,0.1 0.6,-0.1 0.7,-0.2 0.6,-0.4 0.5,-0.5 0.3,-0.6 0.3,-0.6 0.1,-0.7 -0.1,-0.7 -0.3,-0.7 -0.3,-0.5 -0.5,-0.5 -0.6,-0.4 -0.7,-0.2 -0.6,-0.1 -0.7,0.1 -0.7,0.2 -0.6,0.4 -0.5,0.5 -0.3,0.5 -0.3,0.7 0,0.7 m 118.5,18.5 0.1,0.9 0.2,0.9 0.4,0.8 0.5,0.7 0.6,0.6 0.8,0.6 0.8,0.3 0.8,0.3 0.9,0 0.9,0 0.8,-0.3 0.8,-0.3 0.8,-0.6 0.6,-0.6 0.5,-0.7 0.4,-0.8 0.2,-0.9 0.1,-0.9 -0.1,-0.8 -0.2,-0.9 -0.4,-0.8 -0.5,-0.7 -0.6,-0.7 -0.8,-0.5 -0.8,-0.3 -0.8,-0.3 -0.9,-0.1 -0.9,0.1 -0.8,0.3 -0.8,0.3 -0.8,0.5 -0.6,0.7 -0.5,0.7 -0.4,0.8 -0.2,0.9 -0.1,0.8 m -34.1,0 0.1,0.9 0.3,0.9 0.3,0.8 0.5,0.7 0.7,0.6 0.7,0.6 0.8,0.3 0.9,0.3 0.8,0 0.9,0 0.9,-0.3 0.8,-0.3 0.7,-0.6 0.6,-0.6 0.6,-0.7 0.3,-0.8 0.3,-0.9 0,-0.9 0,-0.8 -0.3,-0.9 -0.3,-0.8 -0.6,-0.7 -0.6,-0.7 -0.7,-0.5 -0.8,-0.3 -0.9,-0.3 -0.9,-0.1 -0.8,0.1 -0.9,0.3 -0.8,0.3 -0.7,0.5 -0.7,0.7 -0.5,0.7 -0.3,0.8 -0.3,0.9 -0.1,0.8 m -112.3,0 0.1,0.9 0.2,0.9 0.4,0.8 0.5,0.7 0.6,0.6 0.8,0.6 0.8,0.3 0.8,0.3 0.9,0 0.9,0 0.9,-0.3 0.8,-0.3 0.7,-0.6 0.6,-0.6 0.5,-0.7 0.4,-0.8 0.2,-0.9 0.1,-0.9 -0.1,-0.8 -0.2,-0.9 -0.4,-0.8 -0.5,-0.7 -0.6,-0.7 -0.7,-0.5 -0.8,-0.3 -0.9,-0.3 -0.9,-0.1 -0.9,0.1 -0.8,0.3 -0.8,0.3 -0.8,0.5 -0.6,0.7 -0.5,0.7 -0.4,0.8 -0.2,0.9 -0.1,0.8 m -34,0 0,0.9 0.3,0.9 0.4,0.8 0.5,0.7 0.6,0.6 0.7,0.6 0.8,0.3 0.9,0.3 0.9,0 0.9,0 0.8,-0.3 0.8,-0.3 0.7,-0.6 0.7,-0.6 0.5,-0.7 0.4,-0.8 0.2,-0.9 0.1,-0.9 -0.1,-0.8 -0.2,-0.9 -0.4,-0.8 -0.5,-0.7 -0.7,-0.7 -0.7,-0.5 -0.8,-0.3 -0.8,-0.3 -0.9,-0.1 -0.9,0.1 -0.9,0.3 -0.8,0.3 -0.7,0.5 -0.6,0.7 -0.5,0.7 -0.4,0.8 -0.3,0.9 0,0.8 m 187.4,-26.6 -29.1,0 m 0,0 0,-9 m -18,0 18,0 m -18,9 0,-9 m 0,9 -18,0 m 0,0 0,-9 m -18,0 18,0 m -18,9 0,-9 m 0,9 -18,0 m 0,0 0,-9 m 0,0 -18,0 m 0,9 0,-9 m 0,9 -18,0 m 0,0 0,-9 m 0,0 -18,0 m 0,9 0,-9 m 0,9 -29.2,0 m 184.3,0 8.5,36 m -134.1,8.2 0.1,0.7 0.2,0.7 0.4,0.6 0.5,0.5 0.6,0.4 0.7,0.2 0.7,0.1 0.7,-0.1 0.6,-0.2 0.6,-0.4 0.5,-0.5 0.4,-0.6 0.2,-0.7 0.1,-0.7 -0.1,-0.7 -0.2,-0.6 -0.4,-0.6 -0.5,-0.5 -0.6,-0.4 -0.6,-0.2 -0.7,-0.1 -0.7,0.1 -0.7,0.2 -0.6,0.4 -0.5,0.5 -0.4,0.6 -0.2,0.6 -0.1,0.7 m 60.8,0 0.1,0.7 0.2,0.7 0.4,0.6 0.5,0.5 0.6,0.3 0.6,0.2 0.7,0.1 L 3.8,39.1 4.5,38.9 5.1,38.6 5.5,38.1 5.9,37.5 6.1,36.8 6.2,36.1 6.1,35.4 5.9,34.8 5.5,34.2 5.1,33.7 4.5,33.3 3.8,33.1 3.1,33 2.4,33.1 1.8,33.3 1.2,33.7 0.7,34.2 0.3,34.8 0.1,35.4 0,36.1 m -63,26.7 0,-34.9 m 71.4,34.9 -71.4,0 m -56.5,-70.9 -8.5,36 65,0 m 71.4,34.9 0,-34.9 64.9,0"
             style="fill:none;stroke:#000000;stroke-width:0.70899999;stroke-linecap:round;stroke-linejoin:round;stroke-miterlimit:10;stroke-opacity:1;stroke-dasharray:none"
             id="path3031" />
        </g>
      </g>
      <g
         id="g3044"
         inkscape:label="lil nub"
         transform="translate(-765.43446,1040.7698)">
        <g
           id="g3046"
           transform="translate(56.2,66.3)">
          <path
             inkscape:connector-curvature="0"
             d="m 0,0 18,0 m 0,-9 0,9 m 0,-9 36,0 m 0,0 0,9 M 72,0 54,0 m 18,-9 0,9 m 0,-9 0.6,-1.8 0.4,-1.6 0.4,-1.6 0.2,-1.4 0.1,-1.3 0.1,-1.2 -0.1,-1.3 -0.2,-1.1 -0.4,-1 -0.4,-0.9 -0.6,-0.8 -0.7,-0.7 -0.9,-0.5 -0.9,-0.4 -1,-0.4 -1.1,-0.2 -1.4,-0.1 -1.5,0 -1.6,0.1 -1.5,0.1 -1.6,0.2 -1.8,0.3 -1.8,0.3 -1.7,0.3 -1.6,0.2 -1.5,0.2 -1.1,0.1 -1,0.1 -0.9,-0.1 -0.8,-0.1 -0.6,-0.2 -0.5,-0.3 -0.3,-0.4 -0.2,-0.5 -0.1,-0.6 0.1,-0.7 0.2,-0.8 0.3,-0.8 0.4,-0.9 0.5,-1 0.7,-1.1 0.7,-1.2 0.9,-1.4 1.1,-1.5 m 0,0 -29.8,0 M 0,-9 -0.6,-10.8 -1,-12.4 -1.4,-14 l -0.2,-1.4 -0.1,-1.3 -0.1,-1.2 0.1,-1.3 0.2,-1.1 0.4,-1 0.4,-0.9 0.6,-0.8 0.7,-0.7 0.9,-0.5 0.9,-0.4 1,-0.4 1.1,-0.2 1.4,-0.1 1.5,0 1.6,0.1 1.5,0.1 1.6,0.2 1.8,0.3 1.8,0.3 1.7,0.3 1.6,0.2 1.5,0.2 1.1,0.1 1,0.1 0.9,-0.1 0.8,-0.1 0.6,-0.2 0.5,-0.3 0.3,-0.4 0.2,-0.5 0.1,-0.6 -0.1,-0.7 -0.2,-0.8 -0.3,-0.8 -0.4,-0.9 -0.5,-1 -0.7,-1.1 -0.7,-1.2 -0.9,-1.4 -1.1,-1.5 M 0,-9 0,0"
             style="fill:none;stroke:#000000;stroke-width:0.70899999;stroke-linecap:round;stroke-linejoin:round;stroke-miterlimit:10;stroke-opacity:1;stroke-dasharray:none"
             id="path3048" />
        </g>
      </g>
      <g
         id="g3061"
         inkscape:label="middle"
         transform="matrix(-1,0,0,-1,-591.9555,1157.6557)">
        <path
           id="path3065"
           style="fill:none;stroke:#000000;stroke-width:0.70899999;stroke-linecap:round;stroke-linejoin:round;stroke-miterlimit:10;stroke-opacity:1;stroke-dasharray:none"
           d="m 295.1,87.830963 0,-9 m -18,0 18,0 m -18,9 0,-9 m 0,9 -18,0 m 0,0 0,-9 m -18,0 18,0 m -18,9 0,-9 m 0,9 -18,0 m 0,0 0,-9 m 0,0 -18,0 m 0,9 0,-9 m 0,9 -18,0 m 0,0 0,-9 m 0,0 -18,0 m 0,9 0,-9 m 0,9 -29.1,0 m 184.3,0 8.5,35.999997 m -8.5,-35.999997 -29.2,0 m 37.7,35.999997 0,0.65 0,0.65 0,0.65 0,0.65 0,0.65 0,0.65 0,0.65 0,0.65 0,0.65 0,0.65 0,0.65 0,0.65 0,0.65 0,0.65 0,0.65 0,0.65 m 0,0 -12.58125,0 -12.58125,0 -12.58125,0 -12.58125,0 -12.58125,0 -12.58125,0 -12.58125,0 -12.58125,0 -12.58125,0 -12.58125,0 -12.58125,0 -12.58125,0 -12.58125,0 -12.58125,0 -12.58125,0 -12.58125,0 m 8.5,-46.399997 -8.5,35.999997 0,0.65 0,0.65 0,0.65 0,0.65 0,0.65 0,0.65 0,0.65 0,0.65 0,0.65 0,0.65 0,0.65 0,0.65 0,0.65 0,0.65 0,0.65 0,0.65"
           inkscape:connector-curvature="0"
           sodipodi:nodetypes="cccccccccccccccccccccccccccccccccccccccccccccccccccccccccccccccccccccccccccccccccccccccc" />
        <path
           style="fill:none;stroke:#000000;stroke-width:0.80000001px;stroke-linecap:butt;stroke-linejoin:miter;stroke-opacity:1"
           d="m 332.87304,130.71685 -67.21429,0 -133.39462,0"
           id="path3312"
           inkscape:connector-curvature="0" />
        <path
           style="fill:none;stroke:#000000;stroke-width:0.80000001px;stroke-linecap:butt;stroke-linejoin:miter;stroke-opacity:1"
           d="m 19.826298,77.253484 -14.3982638,0 -25.7263052,0 -14.610002,0"
           id="path3314"
           inkscape:connector-curvature="0" />
        <path
           inkscape:connector-curvature="0"
           id="path3334"
           d="m -133.7737,77.253484 -14.39827,0 -25.7263,0 -14.61,0"
           style="fill:none;stroke:#000000;stroke-width:0.80000001px;stroke-linecap:butt;stroke-linejoin:miter;stroke-opacity:1" />
      </g>
      <g
         id="g3078"
         inkscape:label="new base"
         transform="translate(-687.09493,959.71028)">
        <g
           id="g3080"
           transform="matrix(-1,0,0,-1,275.17143,110.92857)">
          <path
             inkscape:connector-curvature="0"
             d="m 0,0 46.2,0 m 0,0 0.5,-7 1.1,-6.6 1.7,-6.3 2.3,-6 2.8,-5.6 3.4,-5.2 3.9,-4.9 4.4,-4.6 5,-4.2 m 0,0 48.7,0 m 0,0 5.1,4.3 4.5,4.6 3.9,5 3.4,5.3 2.8,5.7 2.2,5.9 1.6,6.2 1.1,6.5 0.6,6.9 m 0,0 46.1,0 m 0,-215.3 -191.3,0 m 13.3,152 1,0.1 1,0.4 0.8,0.6 0.7,0.8 0.4,0.9 0.2,1.1 0,1 -0.4,1 -0.5,0.9 -0.8,0.7 -0.9,0.5 -1,0.2 -1,0 -1,-0.2 -0.9,-0.5 -0.8,-0.7 -0.5,-0.9 -0.4,-1 0,-1 0.2,-1.1 0.4,-0.9 0.7,-0.8 0.8,-0.6 1,-0.4 1,-0.1 m 164.7,0 1.1,0.1 0.9,0.4 0.9,0.6 0.6,0.8 0.5,0.9 0.2,1.1 -0.1,1 -0.3,1 -0.6,0.9 -0.7,0.7 -0.9,0.5 -1,0.2 -1.1,0 -1,-0.2 -0.9,-0.5 -0.8,-0.7 -0.5,-0.9 -0.3,-1 -0.1,-1 0.2,-1.1 0.4,-0.9 0.7,-0.8 0.8,-0.6 1,-0.4 1,-0.1 m 0,-146.4 1.1,0.1 0.9,0.4 0.9,0.6 0.6,0.8 0.5,1 0.2,1 -0.1,1 -0.3,1 -0.6,0.9 -0.7,0.7 -0.9,0.5 -1,0.2 -1.1,0 -1,-0.2 -0.9,-0.5 -0.8,-0.7 -0.5,-0.9 -0.3,-1 -0.1,-1 0.2,-1 0.4,-1 0.7,-0.8 0.8,-0.6 1,-0.4 1,-0.1 m -164.7,0 1,0.1 1,0.4 0.8,0.6 0.7,0.8 0.4,1 0.2,1 0,1 -0.4,1 -0.5,0.9 -0.8,0.7 -0.9,0.5 -1,0.2 -1,0 -1,-0.2 -0.9,-0.5 -0.8,-0.7 -0.5,-0.9 -0.4,-1 0,-1 0.2,-1 0.4,-1 0.7,-0.8 0.8,-0.6 1,-0.4 1,-0.1 m -7.8,194.5 1.2,-0.1 1.1,-0.4 0.9,-0.6 0.8,-0.8 0.7,-1 0.3,-1.1 0.2,-1.1 -0.2,-1.1 -0.3,-1.1 -0.7,-1 -0.8,-0.8 -0.9,-0.6 -1.1,-0.4 -1.2,-0.1 -1.1,0.1 -1.1,0.4 -1,0.6 -0.8,0.8 -0.6,1 -0.4,1.1 -0.1,1.1 0.1,1.1 0.4,1.1 0.6,1 0.8,0.8 1,0.6 1.1,0.4 1.1,0.1 m 34.1,0 1.1,-0.1 1.1,-0.4 1,-0.6 0.8,-0.8 0.6,-1 0.4,-1.1 0.1,-1.1 -0.1,-1.1 -0.4,-1.1 -0.6,-1 -0.8,-0.8 -1,-0.6 -1.1,-0.4 -1.1,-0.1 -1.2,0.1 -1,0.4 -1,0.6 -0.8,0.8 -0.6,1 -0.4,1.1 -0.1,1.1 0.1,1.1 0.4,1.1 0.6,1 0.8,0.8 1,0.6 1,0.4 1.2,0.1 m 112.3,0.5 1.1,-0.1 1.1,-0.4 1,-0.6 0.8,-0.8 0.6,-1 0.3,-1.1 0.2,-1.1 -0.2,-1.1 -0.3,-1.1 -0.6,-1 -0.8,-0.8 -1,-0.6 -1.1,-0.4 -1.1,-0.1 -1.2,0.1 -1,0.4 -1,0.6 -0.8,0.8 -0.6,1 -0.4,1.1 -0.1,1.1 0.1,1.1 0.4,1.1 0.6,1 0.8,0.8 1,0.6 1,0.4 1.2,0.1 m 34,0 1.2,-0.1 1.1,-0.4 0.9,-0.6 0.9,-0.8 0.6,-1 0.4,-1.1 0.1,-1.1 -0.1,-1.1 -0.4,-1.1 -0.6,-1 -0.9,-0.8 -0.9,-0.6 -1.1,-0.4 -1.2,-0.1 -1.1,0.1 -1.1,0.4 -1,0.6 -0.8,0.8 -0.6,1 -0.4,1.1 -0.1,1.1 0.1,1.1 0.4,1.1 0.6,1 0.8,0.8 1,0.6 1.1,0.4 1.1,0.1 M 0,0 l -4.4,-4.1 -4.3,-4.4 -4.1,-4.4 -3.9,-4.7 -3.7,-4.8 -3.5,-5 -3.3,-5.1 -3,-5.3 -2.9,-5.4 -2.6,-5.4 -2.4,-5.6 -2.1,-5.7 -1.9,-5.8 -1.6,-5.9 -1.4,-5.9 -1.2,-6 -0.9,-6 -0.6,-6 -0.4,-6.1 -0.1,-6.1 0.1,-6 0.4,-6.1 0.6,-6.1 0.9,-6 1.2,-5.9 1.4,-5.9 1.6,-5.9 1.9,-5.8 2.1,-5.7 2.4,-5.6 2.6,-5.5 2.9,-5.3 3,-5.3 3.3,-5.1 3.5,-5 3.7,-4.8 3.9,-4.7 4.1,-4.5 4.3,-4.3 4.4,-4.1 m 191.3,0 4.5,4.1 4.2,4.3 4.1,4.5 3.9,4.7 3.7,4.8 3.5,5 3.3,5.1 3.1,5.3 2.8,5.3 2.6,5.5 2.4,5.6 2.1,5.7 1.9,5.8 1.7,5.9 1.4,5.9 1.1,5.9 0.9,6 0.7,6.1 0.3,6.1 0.2,6 -0.2,6.1 -0.3,6.1 -0.7,6 -0.9,6 -1.1,6 -1.4,5.9 -1.7,5.9 -1.9,5.8 -2.1,5.7 -2.4,5.6 -2.6,5.4 -2.8,5.4 -3.1,5.3 -3.3,5.1 -3.5,5 -3.7,4.8 -3.9,4.7 -4.1,4.4 -4.2,4.4 -4.5,4.1"
             style="fill:none;stroke:#000000;stroke-width:0.70899999;stroke-linecap:round;stroke-linejoin:round;stroke-miterlimit:10;stroke-opacity:1;stroke-dasharray:none"
             id="path3082" />
        </g>
      </g>
      <g
         transform="matrix(0,-1.0509121,-1.0509121,0,-185.17046,1562.6209)"
         style="font-size:20px;font-style:normal;font-variant:normal;font-weight:normal;font-stretch:normal;text-align:center;line-height:125%;letter-spacing:0px;word-spacing:0px;text-anchor:middle;fill:#00ff00;fill-opacity:1;stroke:none;font-family:Meiryo;-inkscape-font-specification:Meiryo"
         id="flowRoot3119">
        <path
           d="m 296.44434,405.87719 -1.18653,0 -2.42187,-2.95898 -1.49903,0 0,2.95898 -0.9082,0 0,-7.35839 2.08496,0 c 0.97982,0 1.6805,0.18392 2.10205,0.55175 0.42155,0.36785 0.63232,0.85125 0.63233,1.4502 -10e-6,1.01237 -0.49643,1.72526 -1.48926,2.13867 z m -5.10743,-6.58691 0,2.88086 1.06934,0 c 0.67382,0 1.15722,-0.13672 1.4502,-0.41016 0.29296,-0.27343 0.43944,-0.67219 0.43945,-1.19629 -1e-5,-0.8496 -0.57455,-1.2744 -1.72363,-1.27441 z"
           style="font-size:10px;fill:#00ff00"
           id="path3069" />
        <path
           d="m 300.52148,404.56372 0,-1.60156 c -1.21419,0.0553 -1.99463,0.18961 -2.3413,0.40283 -0.34669,0.21322 -0.52003,0.507 -0.52002,0.88135 -1e-5,0.6608 0.40039,0.99121 1.20117,0.99121 0.54361,0 1.097,-0.22461 1.66015,-0.67383 z m 0,1.31347 0,-0.61523 c -0.45898,0.33203 -0.83659,0.54281 -1.13281,0.63232 -0.29622,0.0895 -0.59733,0.13428 -0.90332,0.13428 -0.49154,0 -0.90006,-0.16276 -1.22558,-0.48828 -0.32553,-0.32552 -0.48829,-0.73893 -0.48829,-1.24023 0,-0.64128 0.2417,-1.12386 0.7251,-1.44776 0.4834,-0.32389 1.4917,-0.51676 3.0249,-0.57861 l 0,-0.16602 c 0,-0.38411 -0.11393,-0.66812 -0.34179,-0.85205 -0.22787,-0.18391 -0.62826,-0.27587 -1.20117,-0.27588 -0.50456,10e-6 -1.06609,0.13022 -1.68457,0.39063 l -0.0391,0 0,-0.89356 c 0.60873,-0.16601 1.19466,-0.24901 1.75782,-0.24902 0.81705,1e-5 1.41519,0.15219 1.79443,0.45654 0.37923,0.30437 0.56884,0.77719 0.56885,1.41846 l 0,3.77441 z"
           style="font-size:10px;fill:#00ff00"
           id="path3071" />
        <path
           d="m 304.5498,406.00903 c -0.6901,0 -1.33789,-0.15137 -1.94335,-0.4541 l 0,-0.99609 0.0342,0 c 0.65756,0.48828 1.31022,0.73242 1.95801,0.73242 0.9082,0 1.3623,-0.28646 1.36231,-0.85938 -10e-6,-0.22461 -0.0602,-0.39876 -0.18067,-0.52246 -0.12044,-0.12369 -0.37109,-0.22949 -0.75195,-0.31738 -0.31901,-0.0618 -0.68522,-0.1416 -1.09863,-0.23926 -0.41342,-0.0976 -0.73324,-0.26937 -0.95948,-0.51514 -0.22623,-0.24576 -0.33935,-0.5607 -0.33935,-0.94482 0,-0.48828 0.19857,-0.88785 0.5957,-1.19873 0.39714,-0.31087 0.92773,-0.4663 1.5918,-0.46631 0.68359,1e-5 1.28418,0.13347 1.80176,0.40039 l 0,0.94727 -0.0342,0 c -0.56967,-0.41992 -1.17351,-0.62988 -1.81153,-0.62989 -0.39388,10e-6 -0.70475,0.0724 -0.93261,0.21729 -0.22787,0.14486 -0.3418,0.34587 -0.3418,0.60303 0,0.22786 0.061,0.40202 0.18311,0.52246 0.12206,0.12044 0.36539,0.22624 0.72998,0.31738 l 1.0791,0.23438 c 0.44596,0.0977 0.78124,0.26937 1.00586,0.51513 0.2246,0.24577 0.33691,0.56397 0.33691,0.95459 0,0.50456 -0.20671,0.9139 -0.62012,1.22803 -0.41341,0.31413 -0.96842,0.47119 -1.66504,0.47119 z"
           style="font-size:10px;fill:#00ff00"
           id="path3073" />
        <path
           d="m 308.83203,405.55981 0,2.35352 -0.85937,0 0,-7.55371 0.85937,0 0,0.61035 c 0.62825,-0.51106 1.23861,-0.7666 1.83106,-0.7666 0.65103,0 1.16861,0.25309 1.55273,0.75927 0.38411,0.50619 0.57617,1.20199 0.57617,2.08741 0,0.86914 -0.23275,1.57552 -0.69824,2.11914 -0.4655,0.54362 -1.04167,0.81543 -1.72852,0.81543 -0.52409,0 -1.03515,-0.14161 -1.5332,-0.42481 z m 0,-3.8916 0,3.22266 c 0.48828,0.2181 0.94075,0.32715 1.35742,0.32714 0.53711,1e-5 0.95703,-0.18636 1.25977,-0.55908 0.30273,-0.37272 0.4541,-0.89925 0.4541,-1.57959 0,-1.37695 -0.49642,-2.06542 -1.48926,-2.06543 -0.52734,10e-6 -1.05469,0.21811 -1.58203,0.6543 z"
           style="font-size:10px;fill:#00ff00"
           id="path3075" />
        <path
           d="m 314.93066,405.58423 -0.0732,0.29296 -0.79101,0 0,-7.68554 0.85937,0 0,2.77344 c 0.62825,-0.50781 1.23861,-0.76172 1.83106,-0.76172 0.64778,0 1.16454,0.25554 1.55029,0.7666 0.38574,0.51107 0.57861,1.21094 0.57861,2.09961 0,0.87891 -0.23275,1.5918 -0.69824,2.13867 -0.4655,0.54687 -1.04167,0.82031 -1.72852,0.82031 -0.53711,0 -1.04655,-0.14811 -1.52832,-0.44433 z m -0.005,-3.9209 0,3.27148 c 0.48828,0.2181 0.94075,0.32715 1.35742,0.32715 0.54036,0 0.9611,-0.1888 1.26221,-0.56641 0.3011,-0.3776 0.45166,-0.91145 0.45166,-1.60156 0,-1.38671 -0.49642,-2.08007 -1.48926,-2.08008 -0.52734,10e-6 -1.05469,0.21648 -1.58203,0.64942 z"
           style="font-size:10px;fill:#00ff00"
           id="path3077" />
        <path
           d="m 320.63379,402.54712 3.2373,0 c -0.026,-1.097 -0.52897,-1.64551 -1.50879,-1.64551 -0.49479,0 -0.89518,0.14649 -1.20117,0.43945 -0.30599,0.29297 -0.48177,0.69499 -0.52734,1.20606 z m 2.0166,3.45703 c -0.91797,0 -1.63005,-0.24821 -2.13623,-0.74463 -0.50619,-0.49642 -0.75928,-1.19873 -0.75928,-2.10693 0,-0.90169 0.24252,-1.61865 0.72754,-2.15088 0.48503,-0.53223 1.12793,-0.79834 1.92871,-0.79834 0.72917,0 1.29476,0.2181 1.69678,0.65429 0.40201,0.43621 0.60302,1.05795 0.60303,1.86524 l 0,0.47363 -4.07715,0 c 0,0.66406 0.17985,1.17432 0.53955,1.53076 0.3597,0.35645 0.85693,0.53467 1.4917,0.53467 0.63151,0 1.26302,-0.21973 1.89453,-0.65918 l 0.0391,0 0,0.93262 c -0.78451,0.3125 -1.43392,0.46875 -1.94824,0.46875 z"
           style="font-size:10px;fill:#00ff00"
           id="path3079" />
        <path
           d="m 325.94141,405.87719 0,-5.51757 0.85937,0 0,0.84961 c 0.6901,-0.56641 1.3265,-0.84961 1.90918,-0.84961 0.20508,0 0.41178,0.0163 0.62012,0.0488 l 0,0.89844 -0.0342,0 c -0.27019,-0.0651 -0.54362,-0.0976 -0.82031,-0.0976 -0.55339,0 -1.11166,0.23438 -1.67481,0.70312 l 0,3.96484 z"
           style="font-size:10px;fill:#00ff00"
           id="path3081" />
        <path
           d="m 330.08203,405.87719 0,-5.51757 0.85938,0 0,0.84961 c 0.6901,-0.56641 1.32649,-0.84961 1.90918,-0.84961 0.20507,0 0.41178,0.0163 0.62011,0.0488 l 0,0.89844 -0.0342,0 c -0.27018,-0.0651 -0.54362,-0.0976 -0.82031,-0.0976 -0.55339,0 -1.11165,0.23438 -1.6748,0.70312 l 0,3.96484 z"
           style="font-size:10px;fill:#00ff00"
           id="path3083" />
        <path
           d="m 338.89551,400.35962 -3.23731,7.55371 -0.91797,0 1.02539,-2.27539 -2.22167,-5.27832 0.93261,0 1.75781,4.19922 1.7627,-4.19922 z"
           style="font-size:10px;fill:#00ff00"
           id="path3085" />
        <path
           d="m 344.2666,403.09887 0,2.77832 -0.9082,0 0,-7.35839 2.03125,0 c 0.94726,0 1.64794,0.19938 2.10205,0.59814 0.4541,0.39877 0.68115,0.93506 0.68115,1.60889 0,0.69987 -0.24821,1.27035 -0.74463,1.71142 -0.49642,0.44109 -1.19059,0.66163 -2.08252,0.66162 z m 0,-3.80859 0,3.04199 0.9082,0 c 0.74544,1e-5 1.2736,-0.14404 1.58448,-0.43213 0.31087,-0.28808 0.4663,-0.67138 0.46631,-1.1499 -1e-5,-0.47851 -0.15138,-0.84146 -0.45411,-1.08887 -0.30273,-0.24739 -0.78613,-0.37108 -1.45019,-0.37109 z"
           style="font-size:10px;fill:#00ff00"
           id="path3087" />
        <path
           d="m 350.16504,399.2561 -0.97168,0 0,-0.89355 0.97168,0 z m -0.0537,6.62109 -0.85938,0 0,-5.51757 0.85938,0 z"
           style="font-size:10px;fill:#00ff00"
           id="path3089" />
        <path
           d="m 361.43457,403.02075 -2.69043,0 0,2.69043 -0.75195,0 0,-2.69043 -2.69043,0 0,-0.72266 2.69043,0 0,-2.69043 0.75195,0 0,2.69043 2.69043,0 z"
           style="font-size:10px;fill:#00ff00"
           id="path3091" />
        <path
           d="m 366.37109,406.00903 c -1.10026,0 -1.96208,-0.33203 -2.58545,-0.99609 -0.62337,-0.66406 -0.93505,-1.59994 -0.93505,-2.80762 0,-1.18489 0.31656,-2.11751 0.9497,-2.79785 0.63314,-0.68033 1.4917,-1.0205 2.57569,-1.02051 0.77799,1e-5 1.58853,0.21973 2.43164,0.65918 l 0,1.06934 -0.0684,0 c -0.76498,-0.64127 -1.57227,-0.96191 -2.42188,-0.96192 -0.77474,10e-6 -1.38835,0.26938 -1.84082,0.80811 -0.45247,0.53874 -0.67871,1.28662 -0.67871,2.24365 0,0.95052 0.23031,1.69352 0.69092,2.229 0.46061,0.53549 1.0734,0.80323 1.83838,0.80323 0.41341,0 0.80729,-0.0659 1.18164,-0.19776 0.37434,-0.13183 0.7845,-0.38981 1.23047,-0.77392 l 0.0684,0 0,1.07422 c -0.62501,0.29622 -1.11085,0.48177 -1.45752,0.55664 -0.34669,0.0749 -0.67302,0.1123 -0.97901,0.1123 z"
           style="font-size:10px;fill:#00ff00"
           id="path3093" />
        <path
           d="m 373.27539,404.56372 0,-1.60156 c -1.2142,0.0553 -1.99463,0.18961 -2.34131,0.40283 -0.34668,0.21322 -0.52002,0.507 -0.52002,0.88135 0,0.6608 0.40039,0.99121 1.20117,0.99121 0.54362,0 1.09701,-0.22461 1.66016,-0.67383 z m 0,1.31347 0,-0.61523 c -0.45899,0.33203 -0.83659,0.54281 -1.13281,0.63232 -0.29623,0.0895 -0.59734,0.13428 -0.90332,0.13428 -0.49154,0 -0.90007,-0.16276 -1.22559,-0.48828 -0.32552,-0.32552 -0.48828,-0.73893 -0.48828,-1.24023 0,-0.64128 0.2417,-1.12386 0.7251,-1.44776 0.4834,-0.32389 1.49169,-0.51676 3.0249,-0.57861 l 0,-0.16602 c 0,-0.38411 -0.11394,-0.66812 -0.3418,-0.85205 -0.22786,-0.18391 -0.62825,-0.27587 -1.20117,-0.27588 -0.50456,10e-6 -1.06608,0.13022 -1.68457,0.39063 l -0.0391,0 0,-0.89356 c 0.60872,-0.16601 1.19466,-0.24901 1.75781,-0.24902 0.81706,1e-5 1.4152,0.15219 1.79444,0.45654 0.37922,0.30437 0.56884,0.77719 0.56884,1.41846 l 0,3.77441 z"
           style="font-size:10px;fill:#00ff00"
           id="path3095" />
        <path
           d="m 382.86035,405.87719 0,-3.09082 c -10e-6,-0.5957 -0.0415,-0.99364 -0.12451,-1.19384 -0.083,-0.20019 -0.20997,-0.34668 -0.38086,-0.43946 -0.17091,-0.0928 -0.38656,-0.13915 -0.64697,-0.13916 -0.44597,10e-6 -0.97169,0.24578 -1.57715,0.73731 0.0195,0.16927 0.0293,0.38574 0.0293,0.64941 l 0,3.47656 -0.85938,0 0,-3.09082 c 0,-0.61197 -0.0415,-1.0148 -0.12451,-1.20849 -0.083,-0.19368 -0.20834,-0.3361 -0.37598,-0.42725 -0.16764,-0.0911 -0.38005,-0.13671 -0.6372,-0.13672 -0.4655,10e-6 -0.98471,0.23764 -1.55762,0.71289 l 0,4.15039 -0.85938,0 0,-5.51757 0.85938,0 0,0.66406 c 0.65429,-0.54687 1.27278,-0.82031 1.85547,-0.82031 0.75195,0 1.25976,0.30111 1.52343,0.90332 0.70963,-0.60221 1.38346,-0.90332 2.02149,-0.90332 1.14257,0 1.71386,0.69336 1.71387,2.08007 l 0,3.59375 z"
           style="font-size:10px;fill:#00ff00"
           id="path3097" />
        <path
           d="m 385.80957,402.54712 3.2373,0 c -0.026,-1.097 -0.52897,-1.64551 -1.50878,-1.64551 -0.4948,0 -0.89519,0.14649 -1.20118,0.43945 -0.30599,0.29297 -0.48177,0.69499 -0.52734,1.20606 z m 2.0166,3.45703 c -0.91797,0 -1.63005,-0.24821 -2.13623,-0.74463 -0.50618,-0.49642 -0.75928,-1.19873 -0.75928,-2.10693 0,-0.90169 0.24252,-1.61865 0.72754,-2.15088 0.48503,-0.53223 1.12793,-0.79834 1.92871,-0.79834 0.72917,0 1.29476,0.2181 1.69678,0.65429 0.40201,0.43621 0.60302,1.05795 0.60303,1.86524 l 0,0.47363 -4.07715,0 c 0,0.66406 0.17985,1.17432 0.53955,1.53076 0.3597,0.35645 0.85693,0.53467 1.4917,0.53467 0.63151,0 1.26302,-0.21973 1.89453,-0.65918 l 0.0391,0 0,0.93262 c -0.78451,0.3125 -1.43392,0.46875 -1.94824,0.46875 z"
           style="font-size:10px;fill:#00ff00"
           id="path3099" />
        <path
           d="m 391.11719,405.87719 0,-5.51757 0.85937,0 0,0.84961 c 0.6901,-0.56641 1.3265,-0.84961 1.90918,-0.84961 0.20508,0 0.41178,0.0163 0.62012,0.0488 l 0,0.89844 -0.0342,0 c -0.27019,-0.0651 -0.54362,-0.0976 -0.82031,-0.0976 -0.55339,0 -1.11166,0.23438 -1.67481,0.70312 l 0,3.96484 z"
           style="font-size:10px;fill:#00ff00"
           id="path3101" />
        <path
           d="m 398.58789,404.56372 0,-1.60156 c -1.2142,0.0553 -1.99463,0.18961 -2.34131,0.40283 -0.34668,0.21322 -0.52002,0.507 -0.52002,0.88135 0,0.6608 0.40039,0.99121 1.20117,0.99121 0.54362,0 1.09701,-0.22461 1.66016,-0.67383 z m 0,1.31347 0,-0.61523 c -0.45899,0.33203 -0.83659,0.54281 -1.13281,0.63232 -0.29623,0.0895 -0.59734,0.13428 -0.90332,0.13428 -0.49154,0 -0.90007,-0.16276 -1.22559,-0.48828 -0.32552,-0.32552 -0.48828,-0.73893 -0.48828,-1.24023 0,-0.64128 0.2417,-1.12386 0.7251,-1.44776 0.4834,-0.32389 1.49169,-0.51676 3.0249,-0.57861 l 0,-0.16602 c 0,-0.38411 -0.11394,-0.66812 -0.3418,-0.85205 -0.22786,-0.18391 -0.62825,-0.27587 -1.20117,-0.27588 -0.50456,10e-6 -1.06608,0.13022 -1.68457,0.39063 l -0.0391,0 0,-0.89356 c 0.60872,-0.16601 1.19466,-0.24901 1.75781,-0.24902 0.81706,1e-5 1.4152,0.15219 1.79444,0.45654 0.37922,0.30437 0.56884,0.77719 0.56884,1.41846 l 0,3.77441 z"
           style="font-size:10px;fill:#00ff00"
           id="path3103" />
        <path
           d="m 411.0293,405.87719 -0.90821,0 0,-6.31835 -2.12402,4.3164 -0.49805,0 -2.12402,-4.3164 0,6.31835 -0.84473,0 0,-7.35839 1.16211,0 2.08496,4.23339 2.08008,-4.23339 1.17188,0 z"
           style="font-size:10px;fill:#00ff00"
           id="path3105" />
        <path
           d="m 414.89648,406.02856 c -0.7845,0 -1.40462,-0.2596 -1.86035,-0.77881 -0.45573,-0.5192 -0.68359,-1.22802 -0.68359,-2.12646 0,-0.89844 0.22949,-1.6097 0.68848,-2.13379 0.45898,-0.52408 1.07747,-0.78613 1.85546,-0.78613 0.778,0 1.39648,0.26042 1.85547,0.78125 0.45898,0.52083 0.68847,1.23372 0.68848,2.13867 -10e-6,0.90495 -0.22868,1.6154 -0.68604,2.13135 -0.45736,0.51595 -1.07666,0.77392 -1.85791,0.77392 z m 0,-5.09277 c -0.5306,0 -0.93913,0.18718 -1.22558,0.56152 -0.28646,0.37435 -0.42969,0.91635 -0.42969,1.62598 0,0.69987 0.14323,1.23698 0.42969,1.61133 0.28645,0.37435 0.69498,0.56152 1.22558,0.56152 0.5306,0 0.93913,-0.18717 1.22559,-0.56152 0.28645,-0.37435 0.42968,-0.91146 0.42969,-1.61133 -10e-6,-1.45833 -0.55176,-2.1875 -1.65528,-2.1875 z"
           style="font-size:10px;fill:#00ff00"
           id="path3107" />
        <path
           d="m 423.2168,405.87719 -0.85938,0 0,-0.66406 c -0.66732,0.54362 -1.30697,0.81543 -1.91894,0.81543 -0.57618,0 -1.01726,-0.17822 -1.32325,-0.53467 -0.30599,-0.35644 -0.45898,-0.86669 -0.45898,-1.53076 l 0,-3.60351 0.85937,0 0,3.10058 c 0,0.70964 0.0952,1.18002 0.28565,1.41114 0.19043,0.23112 0.50049,0.34668 0.93018,0.34667 0.5078,1e-5 1.0498,-0.236 1.62597,-0.708 l 0,-4.15039 0.85938,0 z"
           style="font-size:10px;fill:#00ff00"
           id="path3109" />
        <path
           d="m 429.44727,405.87719 -0.85938,0 0,-3.09082 c 0,-0.71614 -0.0944,-1.19058 -0.2832,-1.42334 -0.18881,-0.23274 -0.49968,-0.34911 -0.93262,-0.34912 -0.51107,10e-6 -1.05306,0.23764 -1.62598,0.71289 l 0,4.15039 -0.85937,0 0,-5.51757 0.85937,0 0,0.66406 c 0.64779,-0.54687 1.28744,-0.82031 1.91895,-0.82031 0.56966,0 1.00911,0.17822 1.31836,0.53466 0.30924,0.35645 0.46386,0.87159 0.46387,1.54541 z"
           style="font-size:10px;fill:#00ff00"
           id="path3111" />
        <path
           d="m 432.82129,405.98462 c -1.13933,0 -1.70899,-0.62663 -1.70899,-1.87989 l 0,-3.04199 -0.62988,0 0,-0.70312 0.63477,0 0,-1.58692 0.85449,0 0,1.58692 1.93359,0 0,0.70312 -1.93359,0 0,2.55371 c 0,0.57943 0.0399,0.95459 0.11963,1.12549 0.0797,0.1709 0.20101,0.29623 0.36377,0.37598 0.16276,0.0797 0.37109,0.11963 0.625,0.11963 0.24088,0 0.50618,-0.0586 0.7959,-0.17579 l 0.0293,0 0,0.78125 c -0.38737,0.0944 -0.7487,0.14161 -1.08398,0.14161 z"
           style="font-size:10px;fill:#00ff00"
           id="path3113" />
        <path
           d="m 302.77734,415.52075 -1.32324,-3.62793 -1.31836,3.62793 z m 1.03028,2.85644 -0.75684,-2.0996 -3.19336,0 -0.75683,2.0996 -0.92286,0 2.72461,-7.35839 1.15723,0 2.71973,7.35839 z"
           style="font-size:10px;fill:#00ff00"
           id="path3115" />
        <path
           d="m 310.25781,418.37719 -0.85937,0 0,-3.09082 c -10e-6,-0.71614 -0.0944,-1.19058 -0.28321,-1.42334 -0.1888,-0.23274 -0.49967,-0.34911 -0.93261,-0.34912 -0.51107,10e-6 -1.05306,0.23764 -1.62598,0.71289 l 0,4.15039 -0.85937,0 0,-5.51757 0.85937,0 0,0.66406 c 0.64778,-0.54687 1.28743,-0.82031 1.91895,-0.82031 0.56965,0 1.00911,0.17822 1.31836,0.53466 0.30923,0.35645 0.46386,0.87159 0.46386,1.54541 z"
           style="font-size:10px;fill:#00ff00"
           id="path3117" />
        <path
           d="m 315.45312,417.0686 0,-3.2666 c -0.48177,-0.22135 -0.93262,-0.33203 -1.35253,-0.33203 -0.54037,0 -0.96192,0.18962 -1.26465,0.56885 -0.30274,0.37923 -0.45411,0.91227 -0.4541,1.59912 -1e-5,1.38672 0.49641,2.08008 1.48925,2.08007 0.55664,1e-5 1.08398,-0.21647 1.58203,-0.64941 z m 0,1.30859 0,-0.61035 c -0.62825,0.50782 -1.23698,0.76172 -1.82617,0.76172 -0.65104,0 -1.16943,-0.25553 -1.55517,-0.7666 -0.38575,-0.51107 -0.57862,-1.20931 -0.57862,-2.09473 0,-0.87564 0.23275,-1.58853 0.69825,-2.13867 0.46549,-0.55012 1.04003,-0.82519 1.72363,-0.82519 0.47851,0 0.99121,0.14486 1.53808,0.43457 l 0,-2.44629 0.85938,0 0,7.68554 z"
           style="font-size:10px;fill:#00ff00"
           id="path3119" />
        <path
           d="m 317.98242,418.37719 0,-5.51757 0.85938,0 0,0.84961 c 0.6901,-0.56641 1.32649,-0.84961 1.90918,-0.84961 0.20507,0 0.41178,0.0163 0.62011,0.0488 l 0,0.89844 -0.0342,0 c -0.27018,-0.0651 -0.54362,-0.0976 -0.82031,-0.0976 -0.55339,0 -1.11165,0.23438 -1.6748,0.70312 l 0,3.96484 z"
           style="font-size:10px;fill:#00ff00"
           id="path3121" />
        <path
           d="m 322.59668,415.04712 3.2373,0 c -0.026,-1.097 -0.52897,-1.64551 -1.50878,-1.64551 -0.4948,0 -0.89519,0.14649 -1.20118,0.43945 -0.30599,0.29297 -0.48177,0.69499 -0.52734,1.20606 z m 2.0166,3.45703 c -0.91797,0 -1.63005,-0.24821 -2.13623,-0.74463 -0.50618,-0.49642 -0.75928,-1.19873 -0.75928,-2.10693 0,-0.90169 0.24252,-1.61865 0.72754,-2.15088 0.48503,-0.53223 1.12793,-0.79834 1.92871,-0.79834 0.72917,0 1.29476,0.2181 1.69678,0.65429 0.40201,0.43621 0.60302,1.05795 0.60303,1.86524 l 0,0.47363 -4.07715,0 c 0,0.66406 0.17985,1.17432 0.53955,1.53076 0.3597,0.35645 0.85693,0.53467 1.4917,0.53467 0.63151,0 1.26302,-0.21973 1.89453,-0.65918 l 0.0391,0 0,0.93262 c -0.78451,0.3125 -1.43392,0.46875 -1.94824,0.46875 z"
           style="font-size:10px;fill:#00ff00"
           id="path3123" />
        <path
           d="m 335.11133,412.85962 -1.69434,5.51757 -0.62012,0 -1.52832,-4.28222 -1.62597,4.28222 -0.62012,0 -1.65527,-5.51757 0.89355,0 1.18653,4.15039 1.52343,-4.15039 0.64942,0 1.45019,4.15039 1.18164,-4.15039 z"
           style="font-size:10px;fill:#00ff00"
           id="path3125" />
        <path
           d="m 344.50586,418.37719 -4.79004,0 0,-7.35839 4.79004,0 0,0.79101 -3.88184,0 0,2.14356 3.78418,0 0,0.79101 -3.78418,0 0,2.8418 3.88184,0 z"
           style="font-size:10px;fill:#00ff00"
           id="path3127" />
        <path
           d="m 346.68359,418.37719 -0.85937,0 0,-7.68554 0.85937,0 z"
           style="font-size:10px;fill:#00ff00"
           id="path3129" />
        <path
           d="m 349.91113,418.50903 c -0.6901,0 -1.33789,-0.15137 -1.94336,-0.4541 l 0,-0.99609 0.0342,0 c 0.65755,0.48828 1.31022,0.73242 1.95801,0.73242 0.9082,0 1.3623,-0.28646 1.36231,-0.85938 -10e-6,-0.22461 -0.0602,-0.39876 -0.18067,-0.52246 -0.12044,-0.12369 -0.3711,-0.22949 -0.75195,-0.31738 -0.31901,-0.0618 -0.68523,-0.1416 -1.09863,-0.23926 -0.41342,-0.0976 -0.73324,-0.26937 -0.95948,-0.51514 -0.22623,-0.24576 -0.33935,-0.5607 -0.33935,-0.94482 0,-0.48828 0.19856,-0.88785 0.5957,-1.19873 0.39713,-0.31087 0.92773,-0.4663 1.5918,-0.46631 0.68359,1e-5 1.28417,0.13347 1.80176,0.40039 l 0,0.94727 -0.0342,0 c -0.56967,-0.41992 -1.17351,-0.62988 -1.81153,-0.62989 -0.39388,10e-6 -0.70475,0.0724 -0.93262,0.21729 -0.22786,0.14486 -0.34179,0.34587 -0.34179,0.60303 0,0.22786 0.061,0.40202 0.1831,0.52246 0.12207,0.12044 0.3654,0.22624 0.72998,0.31738 l 1.07911,0.23438 c 0.44596,0.0977 0.78124,0.26937 1.00585,0.51513 0.22461,0.24577 0.33691,0.56397 0.33692,0.95459 -10e-6,0.50456 -0.20671,0.9139 -0.62012,1.22803 -0.41341,0.31413 -0.96843,0.47119 -1.66504,0.47119 z"
           style="font-size:10px;fill:#00ff00"
           id="path3131" />
        <path
           d="m 353.80762,415.04712 3.2373,0 c -0.026,-1.097 -0.52897,-1.64551 -1.50879,-1.64551 -0.49479,0 -0.89518,0.14649 -1.20117,0.43945 -0.30599,0.29297 -0.48177,0.69499 -0.52734,1.20606 z m 2.0166,3.45703 c -0.91797,0 -1.63005,-0.24821 -2.13623,-0.74463 -0.50619,-0.49642 -0.75928,-1.19873 -0.75928,-2.10693 0,-0.90169 0.24251,-1.61865 0.72754,-2.15088 0.48502,-0.53223 1.12793,-0.79834 1.92871,-0.79834 0.72916,0 1.29476,0.2181 1.69678,0.65429 0.40201,0.43621 0.60302,1.05795 0.60303,1.86524 l 0,0.47363 -4.07715,0 c 0,0.66406 0.17985,1.17432 0.53955,1.53076 0.3597,0.35645 0.85693,0.53467 1.4917,0.53467 0.6315,0 1.26301,-0.21973 1.89453,-0.65918 l 0.0391,0 0,0.93262 c -0.78451,0.3125 -1.43392,0.46875 -1.94824,0.46875 z"
           style="font-size:10px;fill:#00ff00"
           id="path3133" />
        <path
           d="m 363.78809,412.85962 -3.23731,7.55371 -0.91797,0 1.02539,-2.27539 -2.22168,-5.27832 0.93262,0 1.75781,4.19922 1.7627,-4.19922 z"
           style="font-size:10px;fill:#00ff00"
           id="path3135" />
        <path
           d="m 369.93555,420.29126 -0.78125,0 0,-9.59961 0.78125,0 z"
           style="font-size:10px;fill:#00ff00"
           id="path3137" />
        <path
           d="m 379.82812,415.52075 -1.32324,-3.62793 -1.31836,3.62793 z m 1.03028,2.85644 -0.75684,-2.0996 -3.19336,0 -0.75683,2.0996 -0.92285,0 2.7246,-7.35839 1.15723,0 2.71973,7.35839 z"
           style="font-size:10px;fill:#00ff00"
           id="path3139" />
        <path
           d="m 383.60742,418.05981 0,2.35352 -0.85937,0 0,-7.55371 0.85937,0 0,0.61035 c 0.62825,-0.51106 1.23861,-0.7666 1.83106,-0.7666 0.65103,0 1.16861,0.25309 1.55273,0.75927 0.38411,0.50619 0.57617,1.20199 0.57617,2.08741 0,0.86914 -0.23275,1.57552 -0.69824,2.11914 -0.4655,0.54362 -1.04167,0.81543 -1.72852,0.81543 -0.52409,0 -1.03515,-0.14161 -1.5332,-0.42481 z m 0,-3.8916 0,3.22266 c 0.48828,0.2181 0.94075,0.32715 1.35742,0.32714 0.53711,1e-5 0.95703,-0.18636 1.25977,-0.55908 0.30273,-0.37272 0.4541,-0.89925 0.4541,-1.57959 0,-1.37695 -0.49642,-2.06542 -1.48926,-2.06543 -0.52734,10e-6 -1.05469,0.21811 -1.58203,0.6543 z"
           style="font-size:10px;fill:#00ff00"
           id="path3141" />
        <path
           d="m 388.8418,418.37719 0,-5.51757 0.85937,0 0,0.84961 c 0.6901,-0.56641 1.3265,-0.84961 1.90918,-0.84961 0.20508,0 0.41178,0.0163 0.62012,0.0488 l 0,0.89844 -0.0342,0 c -0.27019,-0.0651 -0.54362,-0.0976 -0.82031,-0.0976 -0.55339,0 -1.11166,0.23438 -1.67481,0.70312 l 0,3.96484 z"
           style="font-size:10px;fill:#00ff00"
           id="path3143" />
        <path
           d="m 393.90527,411.7561 -0.97168,0 0,-0.89355 0.97168,0 z m -0.0537,6.62109 -0.85937,0 0,-5.51757 0.85937,0 z"
           style="font-size:10px;fill:#00ff00"
           id="path3145" />
        <path
           d="m 396.39062,418.37719 -0.85937,0 0,-7.68554 0.85937,0 z"
           style="font-size:10px;fill:#00ff00"
           id="path3147" />
        <path
           d="m 406.26367,418.37719 -4.92187,0 0,-0.95214 c 0.52083,-0.44922 1.10595,-0.97168 1.75537,-1.56739 0.64941,-0.5957 1.13199,-1.11978 1.44775,-1.57226 0.31575,-0.45247 0.47363,-0.90495 0.47363,-1.35742 0,-0.40039 -0.13265,-0.71289 -0.39794,-0.9375 -0.26531,-0.22461 -0.62582,-0.33691 -1.08155,-0.33692 -0.66732,10e-6 -1.32324,0.2116 -1.96777,0.63477 l -0.0488,0 0,-0.95215 c 0.65755,-0.31249 1.33789,-0.46874 2.04102,-0.46875 0.74218,10e-6 1.32649,0.17986 1.75293,0.53955 0.42642,0.35971 0.63964,0.85043 0.63964,1.47217 0,0.33203 -0.0545,0.64942 -0.16357,0.95215 -0.10905,0.30273 -0.27914,0.59733 -0.51025,0.88379 -0.23113,0.28646 -0.50782,0.59082 -0.83008,0.91308 -0.32227,0.32227 -1.06283,0.97657 -2.22168,1.96289 l 4.0332,0 z"
           style="font-size:10px;fill:#00ff00"
           id="path3149" />
        <path
           d="m 409.9502,418.52856 c -0.86589,0 -1.50228,-0.30924 -1.90918,-0.92773 -0.40691,-0.61849 -0.61036,-1.58366 -0.61036,-2.89551 0,-1.31184 0.20427,-2.27864 0.6128,-2.90039 0.40852,-0.62174 1.0441,-0.93261 1.90674,-0.93262 0.85611,10e-6 1.48925,0.31169 1.89941,0.93506 0.41015,0.62338 0.61523,1.58611 0.61523,2.88818 0,1.31511 -0.20345,2.28272 -0.61035,2.90284 -0.4069,0.62011 -1.04167,0.93017 -1.90429,0.93017 z m 0,-6.90918 c -0.55665,1e-5 -0.96029,0.22055 -1.21094,0.66162 -0.25065,0.44109 -0.37598,1.24919 -0.37598,2.42432 0,1.16537 0.12533,1.9694 0.37598,2.41211 0.25065,0.44271 0.65429,0.66406 1.21094,0.66406 0.55663,0 0.95946,-0.22135 1.20849,-0.66406 0.24902,-0.44271 0.37353,-1.25 0.37354,-2.42188 -1e-5,-1.14908 -0.12371,-1.94905 -0.3711,-2.3999 -0.2474,-0.45084 -0.65104,-0.67626 -1.21093,-0.67627 z"
           style="font-size:10px;fill:#00ff00"
           id="path3151" />
        <path
           d="m 418.26562,418.37719 -3.91601,0 0,-0.67382 1.5332,0 0,-5.0586 -1.5332,0 0,-0.5957 c 0.59896,-0.003 1.02702,-0.0887 1.28418,-0.25635 0.25716,-0.16763 0.40201,-0.43375 0.43457,-0.79834 l 0.69336,0 0,6.70899 1.5039,0 z"
           style="font-size:10px;fill:#00ff00"
           id="path3153" />
        <path
           d="m 420.10156,418.09887 0,-0.97656 0.0781,0 c 0.63476,0.41341 1.29557,0.62012 1.98242,0.62012 0.52734,0 0.9497,-0.15055 1.26709,-0.45166 0.31738,-0.30111 0.47607,-0.71696 0.47607,-1.24756 0,-0.96354 -0.66081,-1.44531 -1.98242,-1.44531 -0.3776,0 -0.87891,0.0651 -1.5039,0.19531 l 0,-3.77441 4.37011,0 0,0.79101 -3.49121,0 0,2.08496 c 0.42969,-0.0423 0.7194,-0.0635 0.86914,-0.0635 0.87565,0 1.53971,0.1888 1.99219,0.5664 0.45247,0.37761 0.67871,0.92774 0.67871,1.65039 0,0.72917 -0.24496,1.32487 -0.73486,1.78711 -0.48992,0.46224 -1.13038,0.69336 -1.92139,0.69336 -0.76823,0 -1.46159,-0.14323 -2.08008,-0.42969 z"
           style="font-size:10px;fill:#00ff00"
           id="path3155" />
      </g>
    </g>
  </g>
</svg>
