<?xml version="1.0" encoding="UTF-8" standalone="no"?>
<!-- Created with Inkscape (http://www.inkscape.org/) -->

<svg
   xmlns:dc="http://purl.org/dc/elements/1.1/"
   xmlns:cc="http://creativecommons.org/ns#"
   xmlns:rdf="http://www.w3.org/1999/02/22-rdf-syntax-ns#"
   xmlns:svg="http://www.w3.org/2000/svg"
   xmlns="http://www.w3.org/2000/svg"
   xmlns:sodipodi="http://sodipodi.sourceforge.net/DTD/sodipodi-0.dtd"
   xmlns:inkscape="http://www.inkscape.org/namespaces/inkscape"
   width="2880"
   height="1620"
   id="svg2"
   version="1.1"
   inkscape:version="0.48.4 r9939"
   sodipodi:docname="New document 1">
  <defs
     id="defs4" />
  <sodipodi:namedview
     id="base"
     pagecolor="#ffffff"
     bordercolor="#666666"
     borderopacity="1.0"
     inkscape:pageopacity="0.0"
     inkscape:pageshadow="2"
     inkscape:zoom="0.98994949"
     inkscape:cx="430.87138"
     inkscape:cy="1387.4199"
     inkscape:document-units="px"
     inkscape:current-layer="g2995"
     showgrid="false"
     units="in"
     inkscape:window-width="1366"
     inkscape:window-height="715"
     inkscape:window-x="-5"
     inkscape:window-y="-5"
     inkscape:window-maximized="1" />
  <metadata
     id="metadata7">
    <rdf:RDF>
      <cc:Work
         rdf:about="">
        <dc:format>image/svg+xml</dc:format>
        <dc:type
           rdf:resource="http://purl.org/dc/dcmitype/StillImage" />
        <dc:title></dc:title>
      </cc:Work>
    </rdf:RDF>
  </metadata>
  <g
     inkscape:label="Layer 1"
     inkscape:groupmode="layer"
     id="layer1"
     transform="translate(0,567.64025)">
    <g
       transform="matrix(1.25,0,0,-1.25,1187.1071,1053.8241)"
       inkscape:label="battery base"
       id="g2993">
      <g
         transform="translate(122.2,190)"
         id="g2995">
        <path
           id="path2997"
           style="fill:none;stroke:#000000;stroke-width:0.70899999;stroke-linecap:round;stroke-linejoin:round;stroke-miterlimit:10;stroke-opacity:1;stroke-dasharray:none"
           d="m -1002.4563,1085.9243 1,0.1 1,0.4 0.79999,0.6 0.7,0.7 0.4,0.9 0.3,1 0,1 -0.3,0.9 -0.4,0.9 -0.7,0.8 -0.79999,0.5 -1,0.4 -1,0.1 -0.9,-0.1 -1,-0.4 -0.8,-0.5 -0.7,-0.8 -0.4,-0.9 -0.3,-0.9 0,-1 0.3,-1 0.4,-0.9 0.7,-0.7 0.8,-0.6 1,-0.4 0.9,-0.1 m 164.79998,0 1,0.1 0.9,0.4 0.8,0.6 0.7,0.7 0.5,0.9 0.2,1 0,1 -0.2,0.9 -0.5,0.9 -0.7,0.8 -0.8,0.5 -0.9,0.4 -1,0.1 -1,-0.1 -0.9,-0.4 -0.9,-0.5 -0.6,-0.8 -0.5,-0.9 -0.2,-0.9 0,-1 0.2,-1 0.5,-0.9 0.6,-0.7 0.9,-0.6 0.9,-0.4 1,-0.1 m 0,-146.39999 1,0.2 0.9,0.3 0.8,0.6 0.7,0.7 0.5,0.9 0.2,1 0,1 -0.2,1 -0.5,0.8 -0.7,0.8 -0.8,0.5 -0.9,0.4 -1,0.1 -1,-0.1 -0.9,-0.4 -0.9,-0.5 -0.6,-0.8 -0.5,-0.8 -0.2,-1 0,-1 0.2,-1 0.5,-0.9 0.6,-0.7 0.9,-0.6 0.9,-0.3 1,-0.2 m -164.79998,0 1,0.2 1,0.3 0.79999,0.6 0.7,0.7 0.4,0.9 0.3,1 0,1 -0.3,1 -0.4,0.8 -0.7,0.8 -0.79999,0.5 -1,0.4 -1,0.1 -0.9,-0.1 -1,-0.4 -0.8,-0.5 -0.7,-0.8 -0.4,-0.8 -0.3,-1 0,-1 0.3,-1 0.4,-0.9 0.7,-0.7 0.8,-0.6 1,-0.3 0.9,-0.2 m 100.39998,3.4 18,0 m -18,-9 0,9 m -35.99999,0 0,-9 m -18,9 18,0 m -18,-9 0,9 m 0,-9 -59.59999,0 m 70.99999,165.19999 -107.39999,0 m 107.39999,0 0.1,-0.2 0.1,-0.1 m 0,0 48.79999,0 m 0,0 0.1,0.2 0.2,0.1 m 107.3,0 -107.3,0 m 11.3,-156.19999 0,-9 m 42.6,137.39999 1,0.1 0.8,0.4 0.8,0.5 0.6,0.8 0.4,0.8 0.2,1 0,0.9 -0.3,0.9 -0.6,0.8 -0.7,0.7 -0.8,0.5 -0.9,0.2 -1,0 -0.9,-0.2 -0.8,-0.5 -0.7,-0.7 -0.5,-0.8 -0.3,-0.9 -0.1,-0.9 0.2,-1 0.4,-0.8 0.6,-0.8 0.8,-0.5 0.9,-0.4 0.9,-0.1 m 46.5,0 1,0.1 0.9,0.4 0.7,0.5 0.6,0.8 0.4,0.8 0.2,1 0,0.9 -0.3,0.9 -0.5,0.8 -0.7,0.7 -0.9,0.5 -0.9,0.2 -1,0 -0.9,-0.2 -0.8,-0.5 -0.7,-0.7 -0.5,-0.8 -0.3,-0.9 -0.1,-0.9 0.2,-1 0.4,-0.8 0.6,-0.8 0.8,-0.5 0.9,-0.4 0.9,-0.1 m -4.5,-88.39999 0.9,0.1 0.9,0.4 0.8,0.5 0.6,0.8 0.4,0.9 0.2,0.9 -0.1,0.9 -0.3,1 -0.5,0.8 -0.7,0.6 -0.8,0.5 -0.9,0.2 -1,0 -0.9,-0.2 -0.9,-0.5 -0.7,-0.6 -0.5,-0.8 -0.3,-1 0,-0.9 0.2,-0.9 0.4,-0.9 0.6,-0.8 0.7,-0.5 0.9,-0.4 1,-0.1 m -37.5,0 1,0.1 0.9,0.4 0.8,0.5 0.6,0.8 0.4,0.9 0.1,0.9 0,0.9 -0.3,1 -0.5,0.8 -0.7,0.6 -0.9,0.5 -0.9,0.2 -0.9,0 -1,-0.2 -0.8,-0.5 -0.7,-0.6 -0.5,-0.8 -0.3,-1 -0.1,-0.9 0.2,-0.9 0.4,-0.9 0.6,-0.8 0.8,-0.5 0.9,-0.4 0.9,-0.1 m -215.09998,116.19999 -2.2,-5.4 -2,-5.5 -1.8,-5.6 -1.6,-5.6 -1.3,-5.7 -1.1,-5.7 -0.8,-5.8 -0.6,-5.8 -0.4,-5.8 -0.2,-5.8 0.1,-5.8 0.3,-5.8 0.6,-5.8 0.8,-5.8 1,-5.8 1.2,-5.7 1.5,-5.6 1.7,-5.59999 2,-5.5 2.1,-5.4 2.4,-5.3 2.6,-5.2 2.8,-5.1 3,-5 3.2,-4.9 3.4,-4.7 3.6,-4.6 3.7,-4.5 4,-4.3 4.1,-4.1 4.3,-4 m 191.19998,0 4.3,4 4.1,4.1 4,4.3 3.8,4.5 3.5,4.6 3.4,4.7 3.2,4.9 3,5 2.8,5.1 2.6,5.2 2.4,5.3 2.2,5.4 1.9,5.5 1.7,5.59999 1.5,5.6 1.2,5.7 1.1,5.8 0.7,5.8 0.6,5.8 0.3,5.8 0.1,5.8 -0.1,5.8 -0.4,5.8 -0.7,5.8 -0.8,5.8 -1.1,5.7 -1.3,5.7 -1.6,5.6 -1.7,5.6 -2,5.5 -2.3,5.4 m -114,-165.19999 -35.99999,0 m 113.59999,0 -59.6,0"
           inkscape:connector-curvature="0" />
        <g
           transform="translate(-1112.6055,839.06296)"
           inkscape:label="bottom"
           id="g3010">
          <g
             transform="translate(157.3,52.4)"
             id="g3012">
            <path
               id="path3014"
               style="fill:none;stroke:#000000;stroke-width:0.70899999;stroke-linecap:round;stroke-linejoin:round;stroke-miterlimit:10;stroke-opacity:1;stroke-dasharray:none"
               d="m 0,0 0,9 m 0,0 -18,0 m 0,0 0,-9 m -18,0 0,9 m 0,0 -18,0 m 0,0 0,-9 m -45,18 0.1,-1.7 0.3,-1.6 0.3,-1.7 0.6,-1.5 0.6,-1.6 0.8,-1.4 1,-1.4 1,-1.3 1.2,-1.1 1.3,-1.1 1.4,-0.9 1.4,-0.8 1.5,-0.7 1.6,-0.5 1.6,-0.4 1.7,-0.3 1.6,0 m 0,36 -1.6,-0.1 -1.7,-0.2 -1.6,-0.4 -1.6,-0.6 -1.5,-0.6 -1.4,-0.8 -1.4,-1 -1.3,-1 -1.2,-1.2 -1,-1.3 -1,-1.4 -0.8,-1.4 -0.6,-1.5 -0.6,-1.6 -0.3,-1.6 -0.3,-1.7 L -99,18 m 45,18 0,-9 m 0,0 18,0 m 0,0 0,9 m 18,0 0,-9 m 0,0 18,0 m 0,0 0,9 m 18,0 0,-9 m 0,0 18,0 m 0,0 0,9 m 18,0 0,-9 m 0,0 18,0 m 0,0 0,9 m 45,-18 0,1.6 -0.3,1.7 -0.3,1.6 -0.6,1.6 -0.6,1.5 -0.9,1.4 -0.9,1.4 -1.1,1.3 -1.1,1.2 -1.3,1 -1.4,1 -1.4,0.8 -1.6,0.6 -1.5,0.6 -1.6,0.4 -1.7,0.2 L 99,36 m 0,-36 1.7,0 1.7,0.3 1.6,0.4 1.5,0.5 1.6,0.7 1.4,0.8 1.4,0.9 1.3,1.1 1.1,1.1 1.1,1.3 0.9,1.4 0.9,1.4 0.6,1.6 0.6,1.5 0.3,1.7 0.3,1.6 0,1.7 M 72,0 72,9 m 0,0 -18,0 m 0,0 0,-9 m -18,0 0,9 m 0,0 -18,0 m 0,0 0,-9 m 68.8,13.6 0.8,0.1 0.8,0.3 0.7,0.3 0.7,0.5 0.5,0.7 0.4,0.7 0.3,0.7 0.1,0.9 0,0.8 -0.2,0.8 -0.4,0.7 -0.4,0.7 -0.6,0.6 -0.7,0.4 -0.8,0.3 -0.8,0.2 -0.8,0 -0.8,-0.2 -0.8,-0.3 -0.7,-0.4 -0.6,-0.6 -0.4,-0.7 -0.4,-0.7 -0.2,-0.8 0,-0.8 0.1,-0.9 0.3,-0.7 0.4,-0.7 0.5,-0.7 0.7,-0.5 0.7,-0.3 0.8,-0.3 0.8,-0.1 m -155.5,8.7 -0.8,-0.1 -0.8,-0.2 -0.8,-0.4 -0.6,-0.5 -0.5,-0.6 -0.4,-0.7 -0.3,-0.8 -0.1,-0.8 0,-0.8 0.2,-0.8 0.3,-0.8 0.5,-0.7 0.6,-0.5 0.7,-0.5 0.8,-0.3 0.8,-0.1 0.8,0 0.8,0.1 0.8,0.3 0.7,0.5 0.5,0.5 0.5,0.7 0.4,0.8 0.2,0.8 0,0.8 -0.1,0.8 -0.3,0.8 -0.4,0.7 -0.5,0.6 -0.7,0.5 -0.7,0.4 -0.8,0.2 -0.8,0.1 M 99,36 72,36 M -81,0 -54,0 m 0,36 -27,0 m 135,0 -18,0 m -54,0 -18,0 M 18,36 0,36 M 72,0 99,0 M -36,0 -18,0 M 36,0 54,0 M 0,0 18,0"
               inkscape:connector-curvature="0" />
          </g>
        </g>
        <g
           transform="translate(-814.0735,763.85316)"
           inkscape:label="camera mount"
           id="g3027">
          <g
             transform="translate(211.6,84.6)"
             id="g3029">
            <path
               id="path3031"
               style="fill:none;stroke:#000000;stroke-width:0.70899999;stroke-linecap:round;stroke-linejoin:round;stroke-miterlimit:10;stroke-opacity:1;stroke-dasharray:none"
               d="M 0,0 0.1,0.7 0.3,1.3 0.7,1.9 1.2,2.4 1.8,2.8 2.4,3 3.1,3.1 3.8,3 4.5,2.8 5.1,2.4 5.5,1.9 5.9,1.3 6.1,0.7 6.2,0 6.1,-0.7 5.9,-1.4 5.5,-1.9 5.1,-2.4 4.5,-2.8 3.8,-3 3.1,-3.1 2.4,-3 1.8,-2.8 1.2,-2.4 0.7,-1.9 0.3,-1.4 0.1,-0.7 0,0 m -60.7,0 0,0.7 0.3,0.6 0.3,0.6 0.5,0.5 0.6,0.4 0.7,0.2 0.7,0.1 0.6,-0.1 0.7,-0.2 0.6,-0.4 0.5,-0.5 0.3,-0.6 0.3,-0.6 0.1,-0.7 -0.1,-0.7 -0.3,-0.7 -0.3,-0.5 -0.5,-0.5 -0.6,-0.4 -0.7,-0.2 -0.6,-0.1 -0.7,0.1 -0.7,0.2 -0.6,0.4 -0.5,0.5 -0.3,0.5 -0.3,0.7 0,0.7 m 118.5,18.5 0.1,0.9 0.2,0.9 0.4,0.8 0.5,0.7 0.6,0.6 0.8,0.6 0.8,0.3 0.8,0.3 0.9,0 0.9,0 0.8,-0.3 0.8,-0.3 0.8,-0.6 0.6,-0.6 0.5,-0.7 0.4,-0.8 0.2,-0.9 0.1,-0.9 -0.1,-0.8 -0.2,-0.9 -0.4,-0.8 -0.5,-0.7 -0.6,-0.7 -0.8,-0.5 -0.8,-0.3 -0.8,-0.3 -0.9,-0.1 -0.9,0.1 -0.8,0.3 -0.8,0.3 -0.8,0.5 -0.6,0.7 -0.5,0.7 -0.4,0.8 -0.2,0.9 -0.1,0.8 m -34.1,0 0.1,0.9 0.3,0.9 0.3,0.8 0.5,0.7 0.7,0.6 0.7,0.6 0.8,0.3 0.9,0.3 0.8,0 0.9,0 0.9,-0.3 0.8,-0.3 0.7,-0.6 0.6,-0.6 0.6,-0.7 0.3,-0.8 0.3,-0.9 0,-0.9 0,-0.8 -0.3,-0.9 -0.3,-0.8 -0.6,-0.7 -0.6,-0.7 -0.7,-0.5 -0.8,-0.3 -0.9,-0.3 -0.9,-0.1 -0.8,0.1 -0.9,0.3 -0.8,0.3 -0.7,0.5 -0.7,0.7 -0.5,0.7 -0.3,0.8 -0.3,0.9 -0.1,0.8 m -112.3,0 0.1,0.9 0.2,0.9 0.4,0.8 0.5,0.7 0.6,0.6 0.8,0.6 0.8,0.3 0.8,0.3 0.9,0 0.9,0 0.9,-0.3 0.8,-0.3 0.7,-0.6 0.6,-0.6 0.5,-0.7 0.4,-0.8 0.2,-0.9 0.1,-0.9 -0.1,-0.8 -0.2,-0.9 -0.4,-0.8 -0.5,-0.7 -0.6,-0.7 -0.7,-0.5 -0.8,-0.3 -0.9,-0.3 -0.9,-0.1 -0.9,0.1 -0.8,0.3 -0.8,0.3 -0.8,0.5 -0.6,0.7 -0.5,0.7 -0.4,0.8 -0.2,0.9 -0.1,0.8 m -34,0 0,0.9 0.3,0.9 0.4,0.8 0.5,0.7 0.6,0.6 0.7,0.6 0.8,0.3 0.9,0.3 0.9,0 0.9,0 0.8,-0.3 0.8,-0.3 0.7,-0.6 0.7,-0.6 0.5,-0.7 0.4,-0.8 0.2,-0.9 0.1,-0.9 -0.1,-0.8 -0.2,-0.9 -0.4,-0.8 -0.5,-0.7 -0.7,-0.7 -0.7,-0.5 -0.8,-0.3 -0.8,-0.3 -0.9,-0.1 -0.9,0.1 -0.9,0.3 -0.8,0.3 -0.7,0.5 -0.6,0.7 -0.5,0.7 -0.4,0.8 -0.3,0.9 0,0.8 m 187.4,-26.6 -29.1,0 m 0,0 0,-9 m -18,0 18,0 m -18,9 0,-9 m 0,9 -18,0 m 0,0 0,-9 m -18,0 18,0 m -18,9 0,-9 m 0,9 -18,0 m 0,0 0,-9 m 0,0 -18,0 m 0,9 0,-9 m 0,9 -18,0 m 0,0 0,-9 m 0,0 -18,0 m 0,9 0,-9 m 0,9 -29.2,0 m 184.3,0 8.5,36 m -134.1,8.2 0.1,0.7 0.2,0.7 0.4,0.6 0.5,0.5 0.6,0.4 0.7,0.2 0.7,0.1 0.7,-0.1 0.6,-0.2 0.6,-0.4 0.5,-0.5 0.4,-0.6 0.2,-0.7 0.1,-0.7 -0.1,-0.7 -0.2,-0.6 -0.4,-0.6 -0.5,-0.5 -0.6,-0.4 -0.6,-0.2 -0.7,-0.1 -0.7,0.1 -0.7,0.2 -0.6,0.4 -0.5,0.5 -0.4,0.6 -0.2,0.6 -0.1,0.7 m 60.8,0 0.1,0.7 0.2,0.7 0.4,0.6 0.5,0.5 0.6,0.3 0.6,0.2 0.7,0.1 L 3.8,39.1 4.5,38.9 5.1,38.6 5.5,38.1 5.9,37.5 6.1,36.8 6.2,36.1 6.1,35.4 5.9,34.8 5.5,34.2 5.1,33.7 4.5,33.3 3.8,33.1 3.1,33 2.4,33.1 1.8,33.3 1.2,33.7 0.7,34.2 0.3,34.8 0.1,35.4 0,36.1 m -63,26.7 0,-34.9 m 71.4,34.9 -71.4,0 m -56.5,-70.9 -8.5,36 65,0 m 71.4,34.9 0,-34.9 64.9,0"
               inkscape:connector-curvature="0"
               sodipodi:nodetypes="cccccccccccccccccccccccccccccccccccccccccccccccccccccccccccccccccccccccccccccccccccccccccccccccccccccccccccccccccccccccccccccccccccccccccccccccccccccccccccccccccccccccccccccccccccccccccccccccccccccccccccccccccccccccccccccccccccccccccccccccccccccccccccccccccccccccccccccccccccccccccccccccccccccccccccccccccccc" />
          </g>
        </g>
        <g
           transform="translate(-887.63446,850.76977)"
           inkscape:label="lil nub"
           id="g3044">
          <g
             transform="translate(56.2,66.3)"
             id="g3046">
            <path
               id="path3048"
               style="fill:none;stroke:#000000;stroke-width:0.70899999;stroke-linecap:round;stroke-linejoin:round;stroke-miterlimit:10;stroke-opacity:1;stroke-dasharray:none"
               d="m 0,0 18,0 m 0,-9 0,9 m 0,-9 36,0 m 0,0 0,9 M 72,0 54,0 m 18,-9 0,9 m 0,-9 0.6,-1.8 0.4,-1.6 0.4,-1.6 0.2,-1.4 0.1,-1.3 0.1,-1.2 -0.1,-1.3 -0.2,-1.1 -0.4,-1 -0.4,-0.9 -0.6,-0.8 -0.7,-0.7 -0.9,-0.5 -0.9,-0.4 -1,-0.4 -1.1,-0.2 -1.4,-0.1 -1.5,0 -1.6,0.1 -1.5,0.1 -1.6,0.2 -1.8,0.3 -1.8,0.3 -1.7,0.3 -1.6,0.2 -1.5,0.2 -1.1,0.1 -1,0.1 -0.9,-0.1 -0.8,-0.1 -0.6,-0.2 -0.5,-0.3 -0.3,-0.4 -0.2,-0.5 -0.1,-0.6 0.1,-0.7 0.2,-0.8 0.3,-0.8 0.4,-0.9 0.5,-1 0.7,-1.1 0.7,-1.2 0.9,-1.4 1.1,-1.5 m 0,0 -29.8,0 M 0,-9 -0.6,-10.8 -1,-12.4 -1.4,-14 l -0.2,-1.4 -0.1,-1.3 -0.1,-1.2 0.1,-1.3 0.2,-1.1 0.4,-1 0.4,-0.9 0.6,-0.8 0.7,-0.7 0.9,-0.5 0.9,-0.4 1,-0.4 1.1,-0.2 1.4,-0.1 1.5,0 1.6,0.1 1.5,0.1 1.6,0.2 1.8,0.3 1.8,0.3 1.7,0.3 1.6,0.2 1.5,0.2 1.1,0.1 1,0.1 0.9,-0.1 0.8,-0.1 0.6,-0.2 0.5,-0.3 0.3,-0.4 0.2,-0.5 0.1,-0.6 -0.1,-0.7 -0.2,-0.8 -0.3,-0.8 -0.4,-0.9 -0.5,-1 -0.7,-1.1 -0.7,-1.2 -0.9,-1.4 -1.1,-1.5 M 0,-9 0,0"
               inkscape:connector-curvature="0" />
          </g>
        </g>
        <g
           transform="matrix(-1,0,0,-1,-714.1555,967.65574)"
           inkscape:label="middle"
           id="g3061">
          <g
             transform="translate(194,102.8)"
             id="g3063">
            <path
               id="path3065"
               style="fill:none;stroke:#000000;stroke-width:0.70899999;stroke-linecap:round;stroke-linejoin:round;stroke-miterlimit:10;stroke-opacity:1;stroke-dasharray:none"
               d="m 0,-6.8690373 0.1,1 0.2,1.1 0.3,1 0.5,0.9 0.6,0.9 0.8,0.8 0.8,0.59999998 0.9,0.6 1,0.4 1,0.3 1.1,0.2 1,0 1.1,-0.2 1,-0.3 1,-0.4 0.9,-0.6 0.8,-0.59999998 0.7,-0.8 0.6,-0.9 0.5,-0.9 0.4,-1 0.2,-1.1 0.1,-1 -0.1,-1.1 -0.2,-1 -0.4,-1 -0.5,-0.9999997 -0.6,-0.8 -0.7,-0.8 -0.8,-0.7 -0.9,-0.5 -1,-0.5 -1,-0.3 -1.1,-0.1 -1,0 -1.1,0.1 -1,0.3 -1,0.5 -0.9,0.5 -0.8,0.7 -0.8,0.8 -0.6,0.8 -0.5,0.9999997 -0.3,1 -0.2,1 -0.1,1.1 m 60.8,0 0,1 0.3,1.1 0.3,1 0.5,0.9 0.6,0.9 0.7,0.8 0.9,0.59999998 0.9,0.6 0.9,0.4 1.1,0.3 1,0.2 1.1,0 1,-0.2 1.1,-0.3 0.9,-0.4 1,-0.6 0.8,-0.59999998 0.7,-0.8 0.6,-0.9 0.5,-0.9 0.4,-1 0.2,-1.1 0.1,-1 -0.1,-1.1 -0.2,-1 -0.4,-1 -0.5,-0.9999997 -0.6,-0.8 -0.7,-0.8 -0.8,-0.7 -1,-0.5 -0.9,-0.5 -1.1,-0.3 -1,-0.1 -1.1,0 -1,0.1 -1.1,0.3 -0.9,0.5 -0.9,0.5 -0.9,0.7 -0.7,0.8 -0.6,0.8 -0.5,0.9999997 -0.3,1 -0.3,1 0,1.1 m 40.3,-8.0999997 0,-9 m -18,0 18,0 m -18,9 0,-9 m 0,9 -18,0 m 0,0 0,-9 m -18,0 18,0 m -18,9 0,-9 m 0,9 -18,0 m 0,0 0,-9 m 0,0 -18,0 m 0,9 0,-9 m 0,9 -18,0 m 0,0 0,-9 m 0,0 -18,0 m 0,9 0,-9 m 0,9 -29.1,0 m 184.3,0 8.5,36 m -8.5,-36 -29.2,0 m 37.7,36 0,10.4 m 0,0 -201.3,0 m 8.5,-46.4 -8.5,36 0,10.4"
               inkscape:connector-curvature="0"
               sodipodi:nodetypes="cccccccccccccccccccccccccccccccccccccccccccccccccccccccccccccccccccccccccccccccccccccccccccccccccccccccccccccccccccccccccccccccccccccccc" />
          </g>
        </g>
        <g
           transform="translate(-809.29493,769.71028)"
           inkscape:label="new base"
           id="g3078">
          <g
             transform="matrix(-1,0,0,-1,275.17143,110.92857)"
             id="g3080">
            <path
               id="path3082"
               style="fill:none;stroke:#000000;stroke-width:0.70899999;stroke-linecap:round;stroke-linejoin:round;stroke-miterlimit:10;stroke-opacity:1;stroke-dasharray:none"
               d="m 0,0 46.2,0 m 0,0 0.5,-7 1.1,-6.6 1.7,-6.3 2.3,-6 2.8,-5.6 3.4,-5.2 3.9,-4.9 4.4,-4.6 5,-4.2 m 0,0 48.7,0 m 0,0 5.1,4.3 4.5,4.6 3.9,5 3.4,5.3 2.8,5.7 2.2,5.9 1.6,6.2 1.1,6.5 0.6,6.9 m 0,0 46.1,0 m 0,-215.3 -191.3,0 m 13.3,152 1,0.1 1,0.4 0.8,0.6 0.7,0.8 0.4,0.9 0.2,1.1 0,1 -0.4,1 -0.5,0.9 -0.8,0.7 -0.9,0.5 -1,0.2 -1,0 -1,-0.2 -0.9,-0.5 -0.8,-0.7 -0.5,-0.9 -0.4,-1 0,-1 0.2,-1.1 0.4,-0.9 0.7,-0.8 0.8,-0.6 1,-0.4 1,-0.1 m 164.7,0 1.1,0.1 0.9,0.4 0.9,0.6 0.6,0.8 0.5,0.9 0.2,1.1 -0.1,1 -0.3,1 -0.6,0.9 -0.7,0.7 -0.9,0.5 -1,0.2 -1.1,0 -1,-0.2 -0.9,-0.5 -0.8,-0.7 -0.5,-0.9 -0.3,-1 -0.1,-1 0.2,-1.1 0.4,-0.9 0.7,-0.8 0.8,-0.6 1,-0.4 1,-0.1 m 0,-146.4 1.1,0.1 0.9,0.4 0.9,0.6 0.6,0.8 0.5,1 0.2,1 -0.1,1 -0.3,1 -0.6,0.9 -0.7,0.7 -0.9,0.5 -1,0.2 -1.1,0 -1,-0.2 -0.9,-0.5 -0.8,-0.7 -0.5,-0.9 -0.3,-1 -0.1,-1 0.2,-1 0.4,-1 0.7,-0.8 0.8,-0.6 1,-0.4 1,-0.1 m -164.7,0 1,0.1 1,0.4 0.8,0.6 0.7,0.8 0.4,1 0.2,1 0,1 -0.4,1 -0.5,0.9 -0.8,0.7 -0.9,0.5 -1,0.2 -1,0 -1,-0.2 -0.9,-0.5 -0.8,-0.7 -0.5,-0.9 -0.4,-1 0,-1 0.2,-1 0.4,-1 0.7,-0.8 0.8,-0.6 1,-0.4 1,-0.1 m -7.8,194.5 1.2,-0.1 1.1,-0.4 0.9,-0.6 0.8,-0.8 0.7,-1 0.3,-1.1 0.2,-1.1 -0.2,-1.1 -0.3,-1.1 -0.7,-1 -0.8,-0.8 -0.9,-0.6 -1.1,-0.4 -1.2,-0.1 -1.1,0.1 -1.1,0.4 -1,0.6 -0.8,0.8 -0.6,1 -0.4,1.1 -0.1,1.1 0.1,1.1 0.4,1.1 0.6,1 0.8,0.8 1,0.6 1.1,0.4 1.1,0.1 m 34.1,0 1.1,-0.1 1.1,-0.4 1,-0.6 0.8,-0.8 0.6,-1 0.4,-1.1 0.1,-1.1 -0.1,-1.1 -0.4,-1.1 -0.6,-1 -0.8,-0.8 -1,-0.6 -1.1,-0.4 -1.1,-0.1 -1.2,0.1 -1,0.4 -1,0.6 -0.8,0.8 -0.6,1 -0.4,1.1 -0.1,1.1 0.1,1.1 0.4,1.1 0.6,1 0.8,0.8 1,0.6 1,0.4 1.2,0.1 m 112.3,0.5 1.1,-0.1 1.1,-0.4 1,-0.6 0.8,-0.8 0.6,-1 0.3,-1.1 0.2,-1.1 -0.2,-1.1 -0.3,-1.1 -0.6,-1 -0.8,-0.8 -1,-0.6 -1.1,-0.4 -1.1,-0.1 -1.2,0.1 -1,0.4 -1,0.6 -0.8,0.8 -0.6,1 -0.4,1.1 -0.1,1.1 0.1,1.1 0.4,1.1 0.6,1 0.8,0.8 1,0.6 1,0.4 1.2,0.1 m 34,0 1.2,-0.1 1.1,-0.4 0.9,-0.6 0.9,-0.8 0.6,-1 0.4,-1.1 0.1,-1.1 -0.1,-1.1 -0.4,-1.1 -0.6,-1 -0.9,-0.8 -0.9,-0.6 -1.1,-0.4 -1.2,-0.1 -1.1,0.1 -1.1,0.4 -1,0.6 -0.8,0.8 -0.6,1 -0.4,1.1 -0.1,1.1 0.1,1.1 0.4,1.1 0.6,1 0.8,0.8 1,0.6 1.1,0.4 1.1,0.1 M 0,0 l -4.4,-4.1 -4.3,-4.4 -4.1,-4.4 -3.9,-4.7 -3.7,-4.8 -3.5,-5 -3.3,-5.1 -3,-5.3 -2.9,-5.4 -2.6,-5.4 -2.4,-5.6 -2.1,-5.7 -1.9,-5.8 -1.6,-5.9 -1.4,-5.9 -1.2,-6 -0.9,-6 -0.6,-6 -0.4,-6.1 -0.1,-6.1 0.1,-6 0.4,-6.1 0.6,-6.1 0.9,-6 1.2,-5.9 1.4,-5.9 1.6,-5.9 1.9,-5.8 2.1,-5.7 2.4,-5.6 2.6,-5.5 2.9,-5.3 3,-5.3 3.3,-5.1 3.5,-5 3.7,-4.8 3.9,-4.7 4.1,-4.5 4.3,-4.3 4.4,-4.1 m 191.3,0 4.5,4.1 4.2,4.3 4.1,4.5 3.9,4.7 3.7,4.8 3.5,5 3.3,5.1 3.1,5.3 2.8,5.3 2.6,5.5 2.4,5.6 2.1,5.7 1.9,5.8 1.7,5.9 1.4,5.9 1.1,5.9 0.9,6 0.7,6.1 0.3,6.1 0.2,6 -0.2,6.1 -0.3,6.1 -0.7,6 -0.9,6 -1.1,6 -1.4,5.9 -1.7,5.9 -1.9,5.8 -2.1,5.7 -2.4,5.6 -2.6,5.4 -2.8,5.4 -3.1,5.3 -3.3,5.1 -3.5,5 -3.7,4.8 -3.9,4.7 -4.1,4.4 -4.2,4.4 -4.5,4.1"
               inkscape:connector-curvature="0" />
          </g>
        </g>
        <flowRoot
           xml:space="preserve"
           id="flowRoot3095"
           style="font-size:20px;font-style:normal;font-variant:normal;font-weight:normal;font-stretch:normal;text-align:center;line-height:125%;letter-spacing:0px;word-spacing:0px;text-anchor:middle;fill:#00ff00;fill-opacity:1;stroke:none;font-family:Meiryo;-inkscape-font-specification:Meiryo"
           transform="matrix(0.8,0,0,-0.8,-1073.6,1100.3144)"><flowRegion
             id="flowRegion3097"><rect
               id="rect3099"
               width="152.53304"
               height="37.375645"
               x="479.82245"
               y="101.74072"
               style="fill:#00ff00;fill-opacity:1" /></flowRegion><flowPara
             id="flowPara3101">pi goes here</flowPara></flowRoot>        <flowRoot
           xml:space="preserve"
           id="flowRoot3103"
           style="font-size:20px;font-style:normal;font-variant:normal;font-weight:normal;font-stretch:normal;text-align:center;line-height:125%;letter-spacing:0px;word-spacing:0px;text-anchor:middle;fill:#00ff00;fill-opacity:1;stroke:none;font-family:Meiryo;-inkscape-font-specification:Meiryo"
           transform="matrix(0.8,0,0,-0.8,-1085.6238,1107.9796)"><flowRegion
             id="flowRegion3105"><rect
               id="rect3107"
               width="118.18785"
               height="57.578693"
               x="142.4315"
               y="87.598587"
               style="fill:#00ff00;fill-opacity:1" /></flowRegion><flowPara
             id="flowPara3109">battery goes here</flowPara></flowRoot>        <flowRoot
           xml:space="preserve"
           id="flowRoot3111"
           style="font-size:20px;font-style:normal;font-variant:normal;font-weight:normal;font-stretch:normal;text-align:center;line-height:125%;letter-spacing:0px;word-spacing:0px;text-anchor:middle;fill:#00ff00;fill-opacity:1;stroke:none;font-family:Meiryo;-inkscape-font-specification:Meiryo"
           transform="matrix(0,0.8,0.8,0,-1089.7497,1091.7485)"><flowRegion
             id="flowRegion3113"><rect
               id="rect3115"
               width="96.974678"
               height="33.335056"
               x="-121.21831"
               y="328.01489"
               style="fill:#00ff00;fill-opacity:1" /></flowRegion><flowPara
             id="flowPara3117"
             style="font-size:12px;fill:#00ff00;fill-opacity:1">power circuit goes here</flowPara></flowRoot>        <flowRoot
           xml:space="preserve"
           id="flowRoot3119"
           style="font-size:20px;font-style:normal;font-variant:normal;font-weight:normal;font-stretch:normal;text-align:center;line-height:125%;letter-spacing:0px;word-spacing:0px;text-anchor:middle;fill:#00ff00;fill-opacity:1;stroke:none;font-family:Meiryo;-inkscape-font-specification:Meiryo"
           transform="matrix(0,-1.0509121,-1.0509121,0,-307.37046,1372.6209)"><flowRegion
             id="flowRegion3121"><rect
               id="rect3123"
               width="342.14285"
               height="100.71429"
               x="190.71428"
               y="398.57144"
               style="fill:#00ff00;fill-opacity:1" /></flowRegion><flowPara
             id="flowPara3131"
             style="font-size:10px;fill:#00ff00;fill-opacity:1">Raspberry Pi +Camera Mount</flowPara><flowPara
             id="flowPara3135"
             style="font-size:10px;fill:#00ff00;fill-opacity:1">Andrew Elsey | April 2015</flowPara></flowRoot>        <flowRoot
           xml:space="preserve"
           id="flowRoot3141"
           style="font-size:10px;font-style:normal;font-variant:normal;font-weight:normal;font-stretch:normal;text-align:center;line-height:125%;letter-spacing:0px;word-spacing:0px;text-anchor:middle;fill:#00ff00;fill-opacity:1;stroke:none;font-family:Meiryo;-inkscape-font-specification:Meiryo"
           transform="matrix(0.8,0,0,-0.8,-1071.8857,1106.6001)"><flowRegion
             id="flowRegion3143"><rect
               id="rect3145"
               width="53.57143"
               height="30"
               x="524.28571"
               y="279.28571"
               style="font-size:10px;fill:#00ff00;fill-opacity:1" /></flowRegion><flowPara
             id="flowPara3147">camera goes here</flowPara></flowRoot>        <flowRoot
           xml:space="preserve"
           id="flowRoot3917"
           style="font-size:20px;font-style:normal;font-variant:normal;font-weight:normal;font-stretch:normal;text-align:center;line-height:125%;letter-spacing:0px;word-spacing:0px;text-anchor:middle;fill:#000000;fill-opacity:1;stroke:none;font-family:Meiryo;-inkscape-font-specification:Meiryo"
           transform="matrix(0.8,0,0,-0.8,-884.40139,1166.1644)"><flowRegion
             id="flowRegion3919"><rect
               id="rect3921"
               width="177.78685"
               height="145.46196"
               x="31.31473"
               y="370.44131" /></flowRegion><flowPara
             id="flowPara3923"
             style="fill:#ff0000;fill-opacity:1;font-size:15px">Black = cut</flowPara><flowPara
             id="flowPara3925"
             style="fill:#ff0000;fill-opacity:1;font-size:15px">Green = raster</flowPara></flowRoot>      </g>
    </g>
  </g>
</svg>
