%FSTAX24Y24*%
%MOIN*%
%SFA1B1*%

%IPPOS*%
%ADD14C,0.250000*%
%ADD18C,0.200000*%
%ADD19C,0.047200*%
%ADD20C,0.075000*%
%ADD21C,0.150000*%
%ADD22C,0.120000*%
%ADD23C,0.050000*%
%LNtoasterbigboardversion2-1*%
%LPD*%
G54D14*
X092383Y105865D02*
X102163D01*
X092383Y077115D02*
X102163D01*
X092383Y048365D02*
X102163D01*
X063752D02*
X073533D01*
X063752Y077115D02*
X073533D01*
X063752Y105865D02*
X073533D01*
G54D18*
X050661Y105865D03*
X04088D03*
X063752D03*
X073533D03*
X050661Y077115D03*
X04088D03*
X063752D03*
X073533D03*
X050661Y048365D03*
X04088D03*
X063752D03*
X073533D03*
X115255Y105865D03*
X125035D03*
X102163D03*
X092383D03*
X115255Y077115D03*
X125035D03*
X102163D03*
X092383D03*
X115255Y048365D03*
X125035D03*
X102163D03*
X092383D03*
G54D19*
X0762Y0403D03*
X0742D03*
G54D20*
X093525Y0328D03*
Y0403D03*
X079775Y0328D03*
Y0403D03*
X088525D03*
X087275D03*
X086025D03*
G54D21*
X087745Y02219D03*
G54D22*
X087745Y02397D03*
Y02633D03*
X089595Y02515D03*
G54D23*
X08985Y03265D03*
X08645Y0327D03*
X08305D03*
X098815Y043065D03*
X1117Y02885D03*
X08135Y1127D03*
M02*