%FSTAX24Y24*%
%MOIN*%
%SFA1B1*%

%IPPOS*%
%ADD32R,0.035600X0.043400*%
%ADD33R,0.086300X0.091900*%
%ADD34R,0.063100X0.051300*%
%ADD35R,0.149700X0.080800*%
%ADD36C,0.208000*%
%ADD37C,0.055200*%
%ADD38C,0.083000*%
%ADD39C,0.158000*%
%ADD40C,0.128000*%
%ADD41C,0.058000*%
%LNtoasterbigboardversion2-1*%
%LPD*%
G54D32*
X084095Y1127D03*
X083505D03*
X087305Y0423D03*
X087895D03*
X083505Y1074D03*
X084095D03*
G54D33*
X107179Y02885D03*
X105321D03*
G54D34*
X0963Y042435D03*
Y043065D03*
G54D35*
X1053Y03863D03*
Y03657D03*
G54D36*
X050661Y105865D03*
X04088D03*
X063752D03*
X073533D03*
X050661Y077115D03*
X04088D03*
X063752D03*
X073533D03*
X050661Y048365D03*
X04088D03*
X063752D03*
X073533D03*
X115255Y105865D03*
X125035D03*
X102163D03*
X092383D03*
X115255Y077115D03*
X125035D03*
X102163D03*
X092383D03*
X115255Y048365D03*
X125035D03*
X102163D03*
X092383D03*
G54D37*
X0762Y0403D03*
X0742D03*
G54D38*
X093525Y0328D03*
Y0403D03*
X079775Y0328D03*
Y0403D03*
X088525D03*
X087275D03*
X086025D03*
G54D39*
X087745Y02219D03*
G54D40*
X087745Y02397D03*
Y02633D03*
X089595Y02515D03*
G54D41*
X08985Y03265D03*
X08645Y0327D03*
X08305D03*
X098815Y043065D03*
X1117Y02885D03*
X08135Y1127D03*
M02*