%FSTAX24Y24*%
%MOIN*%
%SFA1B1*%

%IPPOS*%
%ADD10R,0.027600X0.035400*%
%ADD11R,0.078300X0.083900*%
%ADD12R,0.055100X0.043300*%
%ADD13R,0.141700X0.072800*%
%ADD18C,0.200000*%
%ADD19C,0.047200*%
%ADD20C,0.075000*%
%ADD21C,0.150000*%
%ADD22C,0.120000*%
%LNtoasterbigboardversion2-1*%
%LPD*%
G54D10*
X084095Y1127D03*
X083505D03*
X087305Y0423D03*
X087895D03*
X083505Y1074D03*
X084095D03*
G54D11*
X107179Y02885D03*
X105321D03*
G54D12*
X0963Y042435D03*
Y043065D03*
G54D13*
X1053Y03863D03*
Y03657D03*
G54D18*
X050661Y105865D03*
X04088D03*
X063752D03*
X073533D03*
X050661Y077115D03*
X04088D03*
X063752D03*
X073533D03*
X050661Y048365D03*
X04088D03*
X063752D03*
X073533D03*
X115255Y105865D03*
X125035D03*
X102163D03*
X092383D03*
X115255Y077115D03*
X125035D03*
X102163D03*
X092383D03*
X115255Y048365D03*
X125035D03*
X102163D03*
X092383D03*
G54D19*
X0762Y0403D03*
X0742D03*
G54D20*
X093525Y0328D03*
Y0403D03*
X079775Y0328D03*
Y0403D03*
X088525D03*
X087275D03*
X086025D03*
G54D21*
X087745Y02219D03*
G54D22*
X087745Y02397D03*
Y02633D03*
X089595Y02515D03*
M02*