G04 Layer_Physical_Order=1*
G04 Layer_Color=255*
%FSLAX24Y24*%
%MOIN*%
G70*
G01*
G75*
%ADD10R,0.0276X0.0354*%
%ADD11R,0.0783X0.0839*%
%ADD12R,0.0551X0.0433*%
%ADD13R,0.1417X0.0728*%
%ADD14C,0.2500*%
%ADD15C,0.0200*%
%ADD16C,0.1250*%
%ADD17C,0.0100*%
%ADD18C,0.2000*%
%ADD19C,0.0472*%
%ADD20C,0.0750*%
%ADD21C,0.1500*%
%ADD22C,0.1200*%
%ADD23C,0.0500*%
G36*
X95450Y30850D02*
X95200Y30600D01*
X78000D01*
Y35600D01*
X95450D01*
Y30850D01*
D02*
G37*
D10*
X84095Y112700D02*
D03*
X83505D02*
D03*
X87305Y42300D02*
D03*
X87895D02*
D03*
X83505Y107400D02*
D03*
X84095D02*
D03*
D11*
X107179Y28850D02*
D03*
X105321D02*
D03*
D12*
X96300Y42435D02*
D03*
Y43065D02*
D03*
D13*
X105300Y38630D02*
D03*
Y36570D02*
D03*
D14*
X92193Y105675D02*
X92383Y105865D01*
X79775Y48175D02*
X92193D01*
X73533Y105865D02*
X73723Y105675D01*
Y48175D02*
X79775D01*
Y40300D02*
Y48175D01*
X109650Y28850D02*
X111700D01*
X63752Y105865D02*
X73533D01*
X92383D02*
X102163D01*
X63752Y48365D02*
X73533D01*
X92383D02*
X102163D01*
X63752Y77115D02*
X73533D01*
X73723Y48175D02*
Y105675D01*
X92383Y77115D02*
X102163D01*
X92193Y48175D02*
Y105675D01*
D15*
X76200Y40300D02*
X79775D01*
X96250D02*
Y42385D01*
X87995Y42300D02*
X90600D01*
X90650Y42250D01*
Y32800D02*
Y42250D01*
X87275Y40300D02*
Y42170D01*
X96300Y43065D02*
X97915D01*
X83450Y105865D02*
X92383D01*
X83450D02*
Y107345D01*
X83505Y107400D01*
X82400Y112700D02*
X83505D01*
D16*
X87745Y26330D02*
Y28755D01*
X105300Y38630D02*
Y40300D01*
X93525D02*
X96250D01*
X105300D01*
X87745Y28755D02*
X87840Y28850D01*
X105321D01*
X105300Y36570D02*
X105321Y36550D01*
Y28850D02*
Y36550D01*
X97915Y43065D02*
X98815D01*
X107179Y28850D02*
X109650D01*
X81350Y112700D02*
X82400D01*
D17*
X87275Y42170D02*
X87405Y42300D01*
X84095Y107400D02*
Y112700D01*
X50100Y117950D02*
X50500D01*
X50300D01*
Y117350D01*
X51000Y117950D02*
X50800D01*
X50700Y117850D01*
Y117450D01*
X50800Y117350D01*
X51000D01*
X51100Y117450D01*
Y117850D01*
X51000Y117950D01*
X51300Y117350D02*
Y117950D01*
X51600D01*
X51699Y117850D01*
Y117650D01*
X51600Y117550D01*
X51300D01*
D18*
X50661Y105865D02*
D03*
X40880D02*
D03*
X63752D02*
D03*
X73533D02*
D03*
X50661Y77115D02*
D03*
X40880D02*
D03*
X63752D02*
D03*
X73533D02*
D03*
X50661Y48365D02*
D03*
X40880D02*
D03*
X63752D02*
D03*
X73533D02*
D03*
X115255Y105865D02*
D03*
X125035D02*
D03*
X102163D02*
D03*
X92383D02*
D03*
X115255Y77115D02*
D03*
X125035D02*
D03*
X102163D02*
D03*
X92383D02*
D03*
X115255Y48365D02*
D03*
X125035D02*
D03*
X102163D02*
D03*
X92383D02*
D03*
D19*
X76200Y40300D02*
D03*
X74200D02*
D03*
D20*
X93525Y32800D02*
D03*
Y40300D02*
D03*
X79775Y32800D02*
D03*
Y40300D02*
D03*
X88525D02*
D03*
X87275D02*
D03*
X86025D02*
D03*
D21*
X87745Y22190D02*
D03*
D22*
Y23970D02*
D03*
Y26330D02*
D03*
X89595Y25150D02*
D03*
D23*
X98815Y43065D02*
D03*
X111700Y28850D02*
D03*
X81350Y112700D02*
D03*
X79650Y34500D02*
D03*
X81250Y34450D02*
D03*
X83350Y34400D02*
D03*
X86100Y34450D02*
D03*
X88650D02*
D03*
X91650Y34300D02*
D03*
X93300Y34250D02*
D03*
X93600Y31550D02*
D03*
X90550Y31500D02*
D03*
X87550Y31550D02*
D03*
X85050D02*
D03*
X82400Y31500D02*
D03*
X80000Y31400D02*
D03*
M02*
