G04 Layer_Color=16711935*
%FSLAX24Y24*%
%MOIN*%
G70*
G01*
G75*
%ADD29C,0.2080*%
%ADD30C,0.0552*%
%ADD31C,0.0830*%
%ADD32C,0.1580*%
%ADD33C,0.1280*%
%ADD34C,0.0580*%
D29*
X50661Y105865D02*
D03*
X40880D02*
D03*
X63752D02*
D03*
X73533D02*
D03*
X50661Y77115D02*
D03*
X40880D02*
D03*
X63752D02*
D03*
X73533D02*
D03*
X50661Y48365D02*
D03*
X40880D02*
D03*
X63752D02*
D03*
X73533D02*
D03*
X115255Y105865D02*
D03*
X125035D02*
D03*
X102163D02*
D03*
X92383D02*
D03*
X115255Y77115D02*
D03*
X125035D02*
D03*
X102163D02*
D03*
X92383D02*
D03*
X115255Y48365D02*
D03*
X125035D02*
D03*
X102163D02*
D03*
X92383D02*
D03*
D30*
X76200Y40300D02*
D03*
X74200D02*
D03*
D31*
X93525Y32800D02*
D03*
Y40300D02*
D03*
X79775Y32800D02*
D03*
Y40300D02*
D03*
X88525D02*
D03*
X87275D02*
D03*
X86025D02*
D03*
D32*
X87745Y22190D02*
D03*
D33*
Y23970D02*
D03*
Y26330D02*
D03*
X89595Y25150D02*
D03*
D34*
X98815Y43065D02*
D03*
X111700Y28850D02*
D03*
X81350Y112700D02*
D03*
X79650Y34500D02*
D03*
X81250Y34450D02*
D03*
X83350Y34400D02*
D03*
X86100Y34450D02*
D03*
X88650D02*
D03*
X91650Y34300D02*
D03*
X93300Y34250D02*
D03*
X93600Y31550D02*
D03*
X90550Y31500D02*
D03*
X87550Y31550D02*
D03*
X85050D02*
D03*
X82400Y31500D02*
D03*
X80000Y31400D02*
D03*
M02*
