M48
;Layer_Color=9474304
;FILE_FORMAT=2:4
INCH,LZ
;TYPE=PLATED
T1F00S00C0.0276
T2F00S00C0.0280
T3F00S00C0.0550
T4F00S00C0.0630
T5F00S00C0.0870
T6F00S00C0.1250
%
T01
X0742Y0403
X0762
T02
X1117Y02885
X0936Y03155
X0933Y03425
X09165Y0343
X08865Y03445
X0861
X08335Y0344
X08125Y03445
X07965Y0345
X08Y0314
X0824Y0315
X08505Y03155
X08755
X09055Y0315
X098815Y043065
X08135Y1127
T03
X079775Y0328
Y0403
X086025
X087275
X088525
X093525
Y0328
T04
X087745Y02397
Y02633
X089595Y02515
T05
X087745Y02219
T06
X125035Y048365
X115255
X102163
X092383
X073533
X063752
X050661
X04088
Y077115
X050661
X063752
X073533
X092383
X102163
X115255
X125035
X04088Y105865
X050661
X063752
X073533
X092383
X102163
X115255
X125035
M30
