%FSTAX24Y24*%
%MOIN*%
%SFA1B1*%

%IPPOS*%
%ADD29C,0.208000*%
%ADD30C,0.055200*%
%ADD31C,0.083000*%
%ADD32C,0.158000*%
%ADD33C,0.128000*%
%ADD34C,0.058000*%
%LNtoasterbigboardversion2_2layer-1*%
%LPD*%
G54D29*
X050661Y105865D03*
X04088D03*
X063752D03*
X073533D03*
X050661Y077115D03*
X04088D03*
X063752D03*
X073533D03*
X050661Y048365D03*
X04088D03*
X063752D03*
X073533D03*
X115255Y105865D03*
X125035D03*
X102163D03*
X092383D03*
X115255Y077115D03*
X125035D03*
X102163D03*
X092383D03*
X115255Y048365D03*
X125035D03*
X102163D03*
X092383D03*
G54D30*
X0762Y0403D03*
X0742D03*
G54D31*
X093525Y0328D03*
Y0403D03*
X079775Y0328D03*
Y0403D03*
X088525D03*
X087275D03*
X086025D03*
G54D32*
X087745Y02219D03*
G54D33*
X087745Y02397D03*
Y02633D03*
X089595Y02515D03*
G54D34*
X098815Y043065D03*
X1117Y02885D03*
X08135Y1127D03*
X07965Y0345D03*
X08125Y03445D03*
X08335Y0344D03*
X0861Y03445D03*
X08865D03*
X09165Y0343D03*
X0933Y03425D03*
X0936Y03155D03*
X09055Y0315D03*
X08755Y03155D03*
X08505D03*
X0824Y0315D03*
X08Y0314D03*
M02*