%FSTAX24Y24*%
%MOIN*%
%SFA1B1*%

%IPPOS*%
%ADD18C,0.200000*%
%ADD19C,0.047200*%
%ADD20C,0.075000*%
%ADD21C,0.150000*%
%ADD22C,0.120000*%
%ADD23C,0.050000*%
%LNtoasterbigboardversion2_2layer-1*%
%LPD*%
G36*
X1452Y11505D02*
Y02015D01*
X02045*
X0203Y0203*
X02015Y115315*
X020185Y11535*
X1449*
X1452Y11505*
G37*
%LNtoasterbigboardversion2_2layer-2*%
%LPC*%
G36*
X087275Y040779D02*
X087151Y040763D01*
X087035Y040715*
X086936Y040639*
X08686Y04054*
X086812Y040424*
X086796Y0403*
X086812Y040176*
X08686Y04006*
X086936Y039961*
X087035Y039885*
X087151Y039837*
X087275Y039821*
X087399Y039837*
X087515Y039885*
X087614Y039961*
X08769Y04006*
X087738Y040176*
X087754Y0403*
X087738Y040424*
X08769Y04054*
X087614Y040639*
X087515Y040715*
X087399Y040763*
X087275Y040779*
G37*
G36*
X086025D02*
X085901Y040763D01*
X085785Y040715*
X085686Y040639*
X08561Y04054*
X085562Y040424*
X085546Y0403*
X085562Y040176*
X08561Y04006*
X085686Y039961*
X085785Y039885*
X085901Y039837*
X086025Y039821*
X086149Y039837*
X086265Y039885*
X086364Y039961*
X08644Y04006*
X086488Y040176*
X086504Y0403*
X086488Y040424*
X08644Y04054*
X086364Y040639*
X086265Y040715*
X086149Y040763*
X086025Y040779*
G37*
G36*
X079775D02*
X079651Y040763D01*
X079535Y040715*
X079436Y040639*
X07936Y04054*
X079312Y040424*
X079296Y0403*
X079312Y040176*
X07936Y04006*
X079436Y039961*
X079535Y039885*
X079651Y039837*
X079775Y039821*
X079899Y039837*
X080015Y039885*
X080114Y039961*
X08019Y04006*
X080238Y040176*
X080254Y0403*
X080238Y040424*
X08019Y04054*
X080114Y040639*
X080015Y040715*
X079899Y040763*
X079775Y040779*
G37*
G36*
X088525D02*
X088401Y040763D01*
X088285Y040715*
X088186Y040639*
X08811Y04054*
X088062Y040424*
X088046Y0403*
X088062Y040176*
X08811Y04006*
X088186Y039961*
X088285Y039885*
X088401Y039837*
X088525Y039821*
X088649Y039837*
X088765Y039885*
X088864Y039961*
X08894Y04006*
X088988Y040176*
X089004Y0403*
X088988Y040424*
X08894Y04054*
X088864Y040639*
X088765Y040715*
X088649Y040763*
X088525Y040779*
G37*
G36*
X07415Y04025D02*
X073867D01*
X073872Y040212*
X073906Y04013*
X07396Y04006*
X07403Y040006*
X074112Y039972*
X07415Y039967*
Y04025*
G37*
G36*
X0762Y040639D02*
X076112Y040628D01*
X07603Y040594*
X07596Y04054*
X075906Y04047*
X075872Y040388*
X075861Y0403*
X075872Y040212*
X075906Y04013*
X07596Y04006*
X07603Y040006*
X076112Y039972*
X0762Y039961*
X076288Y039972*
X07637Y040006*
X07644Y04006*
X076494Y04013*
X076528Y040212*
X076539Y0403*
X076528Y040388*
X076494Y04047*
X07644Y04054*
X07637Y040594*
X076288Y040628*
X0762Y040639*
G37*
G36*
X093525Y040779D02*
X093401Y040763D01*
X093285Y040715*
X093186Y040639*
X09311Y04054*
X093062Y040424*
X093046Y0403*
X093062Y040176*
X09311Y04006*
X093186Y039961*
X093285Y039885*
X093401Y039837*
X093525Y039821*
X093649Y039837*
X093765Y039885*
X093864Y039961*
X09394Y04006*
X093988Y040176*
X094004Y0403*
X093988Y040424*
X09394Y04054*
X093864Y040639*
X093765Y040715*
X093649Y040763*
X093525Y040779*
G37*
G36*
X088443Y02392D02*
X087795D01*
Y023272*
X087882Y02328*
X088014Y02332*
X088136Y023385*
X088242Y023473*
X08833Y023579*
X088395Y023701*
X088435Y023833*
X088443Y02392*
G37*
G36*
X087695D02*
X087047D01*
X087055Y023833*
X087095Y023701*
X08716Y023579*
X087248Y023473*
X087354Y023385*
X087476Y02332*
X087608Y02328*
X087695Y023272*
Y02392*
G37*
G36*
X087745Y023044D02*
X087578Y023028D01*
X087418Y022979*
X08727Y0229*
X087141Y022794*
X087035Y022665*
X086956Y022517*
X086907Y022357*
X086891Y02219*
X086907Y022023*
X086956Y021863*
X087035Y021715*
X087141Y021586*
X08727Y02148*
X087418Y021401*
X087578Y021352*
X087745Y021336*
X087912Y021352*
X088072Y021401*
X08822Y02148*
X088349Y021586*
X088455Y021715*
X088534Y021863*
X088583Y022023*
X088599Y02219*
X088583Y022357*
X088534Y022517*
X088455Y022665*
X088349Y022794*
X08822Y0229*
X088072Y022979*
X087912Y023028*
X087745Y023044*
G37*
G36*
X087695Y024668D02*
X087608Y02466D01*
X087476Y02462*
X087354Y024555*
X087248Y024467*
X08716Y024361*
X087095Y024239*
X087055Y024107*
X087047Y02402*
X087695*
Y024668*
G37*
G36*
X087745Y027033D02*
X087608Y02702D01*
X087476Y02698*
X087354Y026915*
X087248Y026827*
X08716Y026721*
X087095Y026599*
X087055Y026467*
X087042Y02633*
X087055Y026193*
X087095Y026061*
X08716Y025939*
X087248Y025833*
X087354Y025745*
X087476Y02568*
X087608Y02564*
X087745Y025627*
X087882Y02564*
X088014Y02568*
X088136Y025745*
X088242Y025833*
X08833Y025939*
X088395Y026061*
X088435Y026193*
X088448Y02633*
X088435Y026467*
X088395Y026599*
X08833Y026721*
X088242Y026827*
X088136Y026915*
X088014Y02698*
X087882Y02702*
X087745Y027033*
G37*
G36*
X089595Y025853D02*
X089458Y02584D01*
X089326Y0258*
X089204Y025735*
X089098Y025647*
X08901Y025541*
X088945Y025419*
X088905Y025287*
X088892Y02515*
X088905Y025013*
X088945Y024881*
X08901Y024759*
X089098Y024653*
X089204Y024565*
X089326Y0245*
X089458Y02446*
X089595Y024447*
X089732Y02446*
X089864Y0245*
X089986Y024565*
X090092Y024653*
X09018Y024759*
X090245Y024881*
X090285Y025013*
X090298Y02515*
X090285Y025287*
X090245Y025419*
X09018Y025541*
X090092Y025647*
X089986Y025735*
X089864Y0258*
X089732Y02584*
X089595Y025853*
G37*
G36*
X087795Y024668D02*
Y02402D01*
X088443*
X088435Y024107*
X088395Y024239*
X08833Y024361*
X088242Y024467*
X088136Y024555*
X088014Y02462*
X087882Y02466*
X087795Y024668*
G37*
G36*
X102163Y078218D02*
X10199Y078205D01*
X101822Y078164*
X101662Y078098*
X101514Y078008*
X101383Y077895*
X10127Y077764*
X10118Y077616*
X101114Y077456*
X101073Y077288*
X10106Y077115*
X101073Y076942*
X101114Y076774*
X10118Y076614*
X10127Y076466*
X101383Y076335*
X101514Y076222*
X101662Y076132*
X101822Y076066*
X10199Y076025*
X102163Y076012*
X102336Y076025*
X102504Y076066*
X102664Y076132*
X102812Y076222*
X102943Y076335*
X103056Y076466*
X103146Y076614*
X103212Y076774*
X103253Y076942*
X103266Y077115*
X103253Y077288*
X103212Y077456*
X103146Y077616*
X103056Y077764*
X102943Y077895*
X102812Y078008*
X102664Y078098*
X102504Y078164*
X102336Y078205*
X102163Y078218*
G37*
G36*
X092383D02*
X09221Y078205D01*
X092042Y078164*
X091882Y078098*
X091734Y078008*
X091603Y077895*
X09149Y077764*
X0914Y077616*
X091334Y077456*
X091293Y077288*
X09128Y077115*
X091293Y076942*
X091334Y076774*
X0914Y076614*
X09149Y076466*
X091603Y076335*
X091734Y076222*
X091882Y076132*
X092042Y076066*
X09221Y076025*
X092383Y076012*
X092556Y076025*
X092724Y076066*
X092884Y076132*
X093032Y076222*
X093163Y076335*
X093276Y076466*
X093366Y076614*
X093432Y076774*
X093473Y076942*
X093486Y077115*
X093473Y077288*
X093432Y077456*
X093366Y077616*
X093276Y077764*
X093163Y077895*
X093032Y078008*
X092884Y078098*
X092724Y078164*
X092556Y078205*
X092383Y078218*
G37*
G36*
X073533D02*
X07336Y078205D01*
X073192Y078164*
X073032Y078098*
X072884Y078008*
X072752Y077895*
X07264Y077764*
X072549Y077616*
X072483Y077456*
X072443Y077288*
X072429Y077115*
X072443Y076942*
X072483Y076774*
X072549Y076614*
X07264Y076466*
X072752Y076335*
X072884Y076222*
X073032Y076132*
X073192Y076066*
X07336Y076025*
X073533Y076012*
X073705Y076025*
X073873Y076066*
X074033Y076132*
X074181Y076222*
X074313Y076335*
X074425Y076466*
X074516Y076614*
X074582Y076774*
X074622Y076942*
X074636Y077115*
X074622Y077288*
X074582Y077456*
X074516Y077616*
X074425Y077764*
X074313Y077895*
X074181Y078008*
X074033Y078098*
X073873Y078164*
X073705Y078205*
X073533Y078218*
G37*
G36*
X063752Y106968D02*
X06358Y106955D01*
X063412Y106914*
X063252Y106848*
X063104Y106758*
X062972Y106645*
X06286Y106514*
X062769Y106366*
X062703Y106206*
X062663Y106038*
X062649Y105865*
X062663Y105692*
X062703Y105524*
X062769Y105364*
X06286Y105216*
X062972Y105085*
X063104Y104972*
X063252Y104882*
X063412Y104816*
X06358Y104775*
X063752Y104762*
X063925Y104775*
X064093Y104816*
X064253Y104882*
X064401Y104972*
X064533Y105085*
X064645Y105216*
X064736Y105364*
X064802Y105524*
X064842Y105692*
X064856Y105865*
X064842Y106038*
X064802Y106206*
X064736Y106366*
X064645Y106514*
X064533Y106645*
X064401Y106758*
X064253Y106848*
X064093Y106914*
X063925Y106955*
X063752Y106968*
G37*
G36*
X102163D02*
X10199Y106955D01*
X101822Y106914*
X101662Y106848*
X101514Y106758*
X101383Y106645*
X10127Y106514*
X10118Y106366*
X101114Y106206*
X101073Y106038*
X10106Y105865*
X101073Y105692*
X101114Y105524*
X10118Y105364*
X10127Y105216*
X101383Y105085*
X101514Y104972*
X101662Y104882*
X101822Y104816*
X10199Y104775*
X102163Y104762*
X102336Y104775*
X102504Y104816*
X102664Y104882*
X102812Y104972*
X102943Y105085*
X103056Y105216*
X103146Y105364*
X103212Y105524*
X103253Y105692*
X103266Y105865*
X103253Y106038*
X103212Y106206*
X103146Y106366*
X103056Y106514*
X102943Y106645*
X102812Y106758*
X102664Y106848*
X102504Y106914*
X102336Y106955*
X102163Y106968*
G37*
G36*
X092383D02*
X09221Y106955D01*
X092042Y106914*
X091882Y106848*
X091734Y106758*
X091603Y106645*
X09149Y106514*
X0914Y106366*
X091334Y106206*
X091293Y106038*
X09128Y105865*
X091293Y105692*
X091334Y105524*
X0914Y105364*
X09149Y105216*
X091603Y105085*
X091734Y104972*
X091882Y104882*
X092042Y104816*
X09221Y104775*
X092383Y104762*
X092556Y104775*
X092724Y104816*
X092884Y104882*
X093032Y104972*
X093163Y105085*
X093276Y105216*
X093366Y105364*
X093432Y105524*
X093473Y105692*
X093486Y105865*
X093473Y106038*
X093432Y106206*
X093366Y106366*
X093276Y106514*
X093163Y106645*
X093032Y106758*
X092884Y106848*
X092724Y106914*
X092556Y106955*
X092383Y106968*
G37*
G36*
X073533D02*
X07336Y106955D01*
X073192Y106914*
X073032Y106848*
X072884Y106758*
X072752Y106645*
X07264Y106514*
X072549Y106366*
X072483Y106206*
X072443Y106038*
X072429Y105865*
X072443Y105692*
X072483Y105524*
X072549Y105364*
X07264Y105216*
X072752Y105085*
X072884Y104972*
X073032Y104882*
X073192Y104816*
X07336Y104775*
X073533Y104762*
X073705Y104775*
X073873Y104816*
X074033Y104882*
X074181Y104972*
X074313Y105085*
X074425Y105216*
X074516Y105364*
X074582Y105524*
X074622Y105692*
X074636Y105865*
X074622Y106038*
X074582Y106206*
X074516Y106366*
X074425Y106514*
X074313Y106645*
X074181Y106758*
X074033Y106848*
X073873Y106914*
X073705Y106955*
X073533Y106968*
G37*
G36*
X063752Y078218D02*
X06358Y078205D01*
X063412Y078164*
X063252Y078098*
X063104Y078008*
X062972Y077895*
X06286Y077764*
X062769Y077616*
X062703Y077456*
X062663Y077288*
X062649Y077115*
X062663Y076942*
X062703Y076774*
X062769Y076614*
X06286Y076466*
X062972Y076335*
X063104Y076222*
X063252Y076132*
X063412Y076066*
X06358Y076025*
X063752Y076012*
X063925Y076025*
X064093Y076066*
X064253Y076132*
X064401Y076222*
X064533Y076335*
X064645Y076466*
X064736Y076614*
X064802Y076774*
X064842Y076942*
X064856Y077115*
X064842Y077288*
X064802Y077456*
X064736Y077616*
X064645Y077764*
X064533Y077895*
X064401Y078008*
X064253Y078098*
X064093Y078164*
X063925Y078205*
X063752Y078218*
G37*
G36*
X07425Y040633D02*
Y04035D01*
X074533*
X074528Y040388*
X074494Y04047*
X07444Y04054*
X07437Y040594*
X074288Y040628*
X07425Y040633*
G37*
G36*
X07415D02*
X074112Y040628D01*
X07403Y040594*
X07396Y04054*
X073906Y04047*
X073872Y040388*
X073867Y04035*
X07415*
Y040633*
G37*
G36*
X074533Y04025D02*
X07425D01*
Y039967*
X074288Y039972*
X07437Y040006*
X07444Y04006*
X074494Y04013*
X074528Y040212*
X074533Y04025*
G37*
G36*
X063752Y049468D02*
X06358Y049455D01*
X063412Y049414*
X063252Y049348*
X063104Y049258*
X062972Y049145*
X06286Y049014*
X062769Y048866*
X062703Y048706*
X062663Y048538*
X062649Y048365*
X062663Y048192*
X062703Y048024*
X062769Y047864*
X06286Y047716*
X062972Y047585*
X063104Y047472*
X063252Y047382*
X063412Y047316*
X06358Y047275*
X063752Y047262*
X063925Y047275*
X064093Y047316*
X064253Y047382*
X064401Y047472*
X064533Y047585*
X064645Y047716*
X064736Y047864*
X064802Y048024*
X064842Y048192*
X064856Y048365*
X064842Y048538*
X064802Y048706*
X064736Y048866*
X064645Y049014*
X064533Y049145*
X064401Y049258*
X064253Y049348*
X064093Y049414*
X063925Y049455*
X063752Y049468*
G37*
G36*
X102163D02*
X10199Y049455D01*
X101822Y049414*
X101662Y049348*
X101514Y049258*
X101383Y049145*
X10127Y049014*
X10118Y048866*
X101114Y048706*
X101073Y048538*
X10106Y048365*
X101073Y048192*
X101114Y048024*
X10118Y047864*
X10127Y047716*
X101383Y047585*
X101514Y047472*
X101662Y047382*
X101822Y047316*
X10199Y047275*
X102163Y047262*
X102336Y047275*
X102504Y047316*
X102664Y047382*
X102812Y047472*
X102943Y047585*
X103056Y047716*
X103146Y047864*
X103212Y048024*
X103253Y048192*
X103266Y048365*
X103253Y048538*
X103212Y048706*
X103146Y048866*
X103056Y049014*
X102943Y049145*
X102812Y049258*
X102664Y049348*
X102504Y049414*
X102336Y049455*
X102163Y049468*
G37*
G36*
X092383D02*
X09221Y049455D01*
X092042Y049414*
X091882Y049348*
X091734Y049258*
X091603Y049145*
X09149Y049014*
X0914Y048866*
X091334Y048706*
X091293Y048538*
X09128Y048365*
X091293Y048192*
X091334Y048024*
X0914Y047864*
X09149Y047716*
X091603Y047585*
X091734Y047472*
X091882Y047382*
X092042Y047316*
X09221Y047275*
X092383Y047262*
X092556Y047275*
X092724Y047316*
X092884Y047382*
X093032Y047472*
X093163Y047585*
X093276Y047716*
X093366Y047864*
X093432Y048024*
X093473Y048192*
X093486Y048365*
X093473Y048538*
X093432Y048706*
X093366Y048866*
X093276Y049014*
X093163Y049145*
X093032Y049258*
X092884Y049348*
X092724Y049414*
X092556Y049455*
X092383Y049468*
G37*
G36*
X073533D02*
X07336Y049455D01*
X073192Y049414*
X073032Y049348*
X072884Y049258*
X072752Y049145*
X07264Y049014*
X072549Y048866*
X072483Y048706*
X072443Y048538*
X072429Y048365*
X072443Y048192*
X072483Y048024*
X072549Y047864*
X07264Y047716*
X072752Y047585*
X072884Y047472*
X073032Y047382*
X073192Y047316*
X07336Y047275*
X073533Y047262*
X073705Y047275*
X073873Y047316*
X074033Y047382*
X074181Y047472*
X074313Y047585*
X074425Y047716*
X074516Y047864*
X074582Y048024*
X074622Y048192*
X074636Y048365*
X074622Y048538*
X074582Y048706*
X074516Y048866*
X074425Y049014*
X074313Y049145*
X074181Y049258*
X074033Y049348*
X073873Y049414*
X073705Y049455*
X073533Y049468*
G37*
%LNtoasterbigboardversion2_2layer-3*%
%LPD*%
G54D18*
X050661Y105865D03*
X04088D03*
X063752D03*
X073533D03*
X050661Y077115D03*
X04088D03*
X063752D03*
X073533D03*
X050661Y048365D03*
X04088D03*
X063752D03*
X073533D03*
X115255Y105865D03*
X125035D03*
X102163D03*
X092383D03*
X115255Y077115D03*
X125035D03*
X102163D03*
X092383D03*
X115255Y048365D03*
X125035D03*
X102163D03*
X092383D03*
G54D19*
X0762Y0403D03*
X0742D03*
G54D20*
X093525Y0328D03*
Y0403D03*
X079775Y0328D03*
Y0403D03*
X088525D03*
X087275D03*
X086025D03*
G54D21*
X087745Y02219D03*
G54D22*
X087745Y02397D03*
Y02633D03*
X089595Y02515D03*
G54D23*
X098815Y043065D03*
X1117Y02885D03*
X08135Y1127D03*
X07965Y0345D03*
X08125Y03445D03*
X08335Y0344D03*
X0861Y03445D03*
X08865D03*
X09165Y0343D03*
X0933Y03425D03*
X0936Y03155D03*
X09055Y0315D03*
X08755Y03155D03*
X08505D03*
X0824Y0315D03*
X08Y0314D03*
M02*