%FSTAX24Y24*%
%MOIN*%
%SFA1B1*%

%IPPOS*%
%ADD10R,0.027600X0.035400*%
%ADD11R,0.078300X0.083900*%
%ADD12R,0.055100X0.043300*%
%ADD13R,0.141700X0.072800*%
%ADD14C,0.250000*%
%ADD15C,0.020000*%
%ADD16C,0.125000*%
%ADD17C,0.010000*%
%ADD18C,0.200000*%
%ADD19C,0.047200*%
%ADD20C,0.075000*%
%ADD21C,0.150000*%
%ADD22C,0.120000*%
%ADD23C,0.050000*%
%LNtoasterbigboardversion2_2layer-1*%
%LPD*%
G36*
X09545Y03085D02*
X0952Y0306D01*
X078*
Y0356*
X09545*
Y03085*
G37*
G54D10*
X084095Y1127D03*
X083505D03*
X087305Y0423D03*
X087895D03*
X083505Y1074D03*
X084095D03*
G54D11*
X107179Y02885D03*
X105321D03*
G54D12*
X0963Y042435D03*
Y043065D03*
G54D13*
X1053Y03863D03*
Y03657D03*
G54D14*
X092193Y105675D02*
X092383Y105865D01*
X079775Y048175D02*
X092193D01*
X073533Y105865D02*
X073723Y105675D01*
Y048175D02*
X079775D01*
Y0403D02*
Y048175D01*
X10965Y02885D02*
X1117D01*
X063752Y105865D02*
X073533D01*
X092383D02*
X102163D01*
X063752Y048365D02*
X073533D01*
X092383D02*
X102163D01*
X063752Y077115D02*
X073533D01*
X073723Y048175D02*
Y105675D01*
X092383Y077115D02*
X102163D01*
X092193Y048175D02*
Y105675D01*
G54D15*
X0762Y0403D02*
X079775D01*
X09625D02*
Y042385D01*
X087995Y0423D02*
X0906D01*
X09065Y04225*
Y0328D02*
Y04225D01*
X087275Y0403D02*
Y04217D01*
X0963Y043065D02*
X097915D01*
X08345Y105865D02*
X092383D01*
X08345D02*
Y107345D01*
X083505Y1074*
X0824Y1127D02*
X083505D01*
G54D16*
X087745Y02633D02*
Y028755D01*
X1053Y03863D02*
Y0403D01*
X093525D02*
X09625D01*
X1053*
X087745Y028755D02*
X08784Y02885D01*
X105321*
X1053Y03657D02*
X105321Y03655D01*
Y02885D02*
Y03655D01*
X097915Y043065D02*
X098815D01*
X107179Y02885D02*
X10965D01*
X08135Y1127D02*
X0824D01*
G54D17*
X087275Y04217D02*
X087405Y0423D01*
X084095Y1074D02*
Y1127D01*
X0501Y11795D02*
X0505D01*
X0503*
Y11735*
X051Y11795D02*
X0508D01*
X0507Y11785*
Y11745*
X0508Y11735*
X051*
X0511Y11745*
Y11785*
X051Y11795*
X0513Y11735D02*
Y11795D01*
X0516*
X051699Y11785*
Y11765*
X0516Y11755*
X0513*
G54D18*
X050661Y105865D03*
X04088D03*
X063752D03*
X073533D03*
X050661Y077115D03*
X04088D03*
X063752D03*
X073533D03*
X050661Y048365D03*
X04088D03*
X063752D03*
X073533D03*
X115255Y105865D03*
X125035D03*
X102163D03*
X092383D03*
X115255Y077115D03*
X125035D03*
X102163D03*
X092383D03*
X115255Y048365D03*
X125035D03*
X102163D03*
X092383D03*
G54D19*
X0762Y0403D03*
X0742D03*
G54D20*
X093525Y0328D03*
Y0403D03*
X079775Y0328D03*
Y0403D03*
X088525D03*
X087275D03*
X086025D03*
G54D21*
X087745Y02219D03*
G54D22*
X087745Y02397D03*
Y02633D03*
X089595Y02515D03*
G54D23*
X098815Y043065D03*
X1117Y02885D03*
X08135Y1127D03*
X07965Y0345D03*
X08125Y03445D03*
X08335Y0344D03*
X0861Y03445D03*
X08865D03*
X09165Y0343D03*
X0933Y03425D03*
X0936Y03155D03*
X09055Y0315D03*
X08755Y03155D03*
X08505D03*
X0824Y0315D03*
X08Y0314D03*
M02*