G04 Layer_Color=8388736*
%FSLAX24Y24*%
%MOIN*%
G70*
G01*
G75*
%ADD32R,0.0356X0.0434*%
%ADD33R,0.0863X0.0919*%
%ADD34R,0.0631X0.0513*%
%ADD35R,0.1497X0.0808*%
%ADD36C,0.2080*%
%ADD37C,0.0552*%
%ADD38C,0.0830*%
%ADD39C,0.1580*%
%ADD40C,0.1280*%
%ADD41C,0.0580*%
D32*
X84095Y112700D02*
D03*
X83505D02*
D03*
X87305Y42300D02*
D03*
X87895D02*
D03*
X83505Y107400D02*
D03*
X84095D02*
D03*
D33*
X107179Y28850D02*
D03*
X105321D02*
D03*
D34*
X96300Y42435D02*
D03*
Y43065D02*
D03*
D35*
X105300Y38630D02*
D03*
Y36570D02*
D03*
D36*
X50661Y105865D02*
D03*
X40880D02*
D03*
X63752D02*
D03*
X73533D02*
D03*
X50661Y77115D02*
D03*
X40880D02*
D03*
X63752D02*
D03*
X73533D02*
D03*
X50661Y48365D02*
D03*
X40880D02*
D03*
X63752D02*
D03*
X73533D02*
D03*
X115255Y105865D02*
D03*
X125035D02*
D03*
X102163D02*
D03*
X92383D02*
D03*
X115255Y77115D02*
D03*
X125035D02*
D03*
X102163D02*
D03*
X92383D02*
D03*
X115255Y48365D02*
D03*
X125035D02*
D03*
X102163D02*
D03*
X92383D02*
D03*
D37*
X76200Y40300D02*
D03*
X74200D02*
D03*
D38*
X93525Y32800D02*
D03*
Y40300D02*
D03*
X79775Y32800D02*
D03*
Y40300D02*
D03*
X88525D02*
D03*
X87275D02*
D03*
X86025D02*
D03*
D39*
X87745Y22190D02*
D03*
D40*
Y23970D02*
D03*
Y26330D02*
D03*
X89595Y25150D02*
D03*
D41*
X89850Y32650D02*
D03*
X86450Y32700D02*
D03*
X83050D02*
D03*
X98815Y43065D02*
D03*
X111700Y28850D02*
D03*
X81350Y112700D02*
D03*
M02*
