G04 Layer_Physical_Order=3*
G04 Layer_Color=16711680*
%FSLAX24Y24*%
%MOIN*%
G70*
G01*
G75*
%ADD14C,0.2500*%
%ADD18C,0.2000*%
%ADD19C,0.0472*%
%ADD20C,0.0750*%
%ADD21C,0.1500*%
%ADD22C,0.1200*%
%ADD23C,0.0500*%
D14*
X92383Y105865D02*
X102163D01*
X92383Y77115D02*
X102163D01*
X92383Y48365D02*
X102163D01*
X63752D02*
X73533D01*
X63752Y77115D02*
X73533D01*
X63752Y105865D02*
X73533D01*
D18*
X50661D02*
D03*
X40880D02*
D03*
X63752D02*
D03*
X73533D02*
D03*
X50661Y77115D02*
D03*
X40880D02*
D03*
X63752D02*
D03*
X73533D02*
D03*
X50661Y48365D02*
D03*
X40880D02*
D03*
X63752D02*
D03*
X73533D02*
D03*
X115255Y105865D02*
D03*
X125035D02*
D03*
X102163D02*
D03*
X92383D02*
D03*
X115255Y77115D02*
D03*
X125035D02*
D03*
X102163D02*
D03*
X92383D02*
D03*
X115255Y48365D02*
D03*
X125035D02*
D03*
X102163D02*
D03*
X92383D02*
D03*
D19*
X76200Y40300D02*
D03*
X74200D02*
D03*
D20*
X93525Y32800D02*
D03*
Y40300D02*
D03*
X79775Y32800D02*
D03*
Y40300D02*
D03*
X88525D02*
D03*
X87275D02*
D03*
X86025D02*
D03*
D21*
X87745Y22190D02*
D03*
D22*
Y23970D02*
D03*
Y26330D02*
D03*
X89595Y25150D02*
D03*
D23*
X89850Y32650D02*
D03*
X86450Y32700D02*
D03*
X83050D02*
D03*
X98815Y43065D02*
D03*
X111700Y28850D02*
D03*
X81350Y112700D02*
D03*
M02*
