G04 Layer_Color=65535*
%FSLAX24Y24*%
%MOIN*%
G70*
G01*
G75*
%ADD17C,0.0100*%
%ADD31C,0.0079*%
D17*
X39271Y107065D02*
X52270D01*
X39271Y104603D02*
Y107065D01*
X52320Y104615D02*
Y107065D01*
X39271Y104615D02*
X52320D01*
X62143D02*
X75192D01*
Y107065D01*
X62143Y104603D02*
Y107065D01*
X75142D01*
X39271Y78315D02*
X52270D01*
X39271Y75853D02*
Y78315D01*
X52320Y75865D02*
Y78315D01*
X39271Y75865D02*
X52320D01*
X62143D02*
X75192D01*
Y78315D01*
X62143Y75853D02*
Y78315D01*
X75142D01*
X39271Y49565D02*
X52270D01*
X39271Y47103D02*
Y49565D01*
X52320Y47115D02*
Y49565D01*
X39271Y47115D02*
X52320D01*
X62143D02*
X75192D01*
Y49565D01*
X62143Y47103D02*
Y49565D01*
X75142D01*
X113645Y104665D02*
X126645D01*
Y107127D01*
X113595Y104665D02*
Y107115D01*
X126645D01*
X90723D02*
X103773D01*
X90723Y104665D02*
Y107115D01*
X103773Y104665D02*
Y107127D01*
X90773Y104665D02*
X103773D01*
X113645Y75915D02*
X126645D01*
Y78377D01*
X113595Y75915D02*
Y78365D01*
X126645D01*
X90723D02*
X103773D01*
X90723Y75915D02*
Y78365D01*
X103773Y75915D02*
Y78377D01*
X90773Y75915D02*
X103773D01*
X113645Y47165D02*
X126645D01*
Y49627D01*
X113595Y47165D02*
Y49615D01*
X126645D01*
X90723D02*
X103773D01*
X90723Y47165D02*
Y49615D01*
X103773Y47165D02*
Y49627D01*
X90773Y47165D02*
X103773D01*
X76550Y41400D02*
X76850D01*
X76700Y41250D02*
Y41550D01*
X104740Y30100D02*
Y30510D01*
X104550Y30300D02*
X104940D01*
X78850Y41100D02*
X94400D01*
Y32150D02*
Y41100D01*
X94350Y32100D02*
X94400Y32150D01*
X78850Y32100D02*
Y41100D01*
Y32100D02*
X94350D01*
X86745Y21120D02*
X89670D01*
X86745Y27120D02*
X89670D01*
X86120Y21120D02*
X86745D01*
X86120D02*
Y27120D01*
X86795D01*
X89720Y21110D02*
Y24210D01*
Y25960D02*
Y27110D01*
X104749Y37088D02*
Y38112D01*
X105851Y37088D02*
Y38112D01*
X75250Y42000D02*
X75150Y42100D01*
X74950D01*
X74850Y42000D01*
Y41600D01*
X74950Y41500D01*
X75150D01*
X75250Y41600D01*
X75450Y42000D02*
X75550Y42100D01*
X75750D01*
X75850Y42000D01*
Y41900D01*
X75750Y41800D01*
X75650D01*
X75750D01*
X75850Y41700D01*
Y41600D01*
X75750Y41500D01*
X75550D01*
X75450Y41600D01*
X96470Y44150D02*
X96370Y44250D01*
X96170D01*
X96070Y44150D01*
Y43750D01*
X96170Y43650D01*
X96370D01*
X96470Y43750D01*
X97070Y43650D02*
X96670D01*
X97070Y44050D01*
Y44150D01*
X96970Y44250D01*
X96770D01*
X96670Y44150D01*
X91170Y50580D02*
X90970D01*
X91070D01*
Y50080D01*
X90970Y49980D01*
X90870D01*
X90770Y50080D01*
X91770Y50580D02*
X91570Y50480D01*
X91370Y50280D01*
Y50080D01*
X91470Y49980D01*
X91670D01*
X91770Y50080D01*
Y50180D01*
X91670Y50280D01*
X91370D01*
X91170Y79330D02*
X90970D01*
X91070D01*
Y78830D01*
X90970Y78730D01*
X90870D01*
X90770Y78830D01*
X91770Y79330D02*
X91370D01*
Y79030D01*
X91570Y79130D01*
X91670D01*
X91770Y79030D01*
Y78830D01*
X91670Y78730D01*
X91470D01*
X91370Y78830D01*
X85500Y112200D02*
Y112800D01*
X85200D01*
X85100Y112700D01*
Y112300D01*
X85200Y112200D01*
X85500D01*
X84900Y112800D02*
X84700D01*
X84800D01*
Y112200D01*
X84900Y112300D01*
X85490Y107040D02*
Y106440D01*
X85190D01*
X85090Y106540D01*
Y106740D01*
X85190Y106840D01*
X85490D01*
X85290D02*
X85090Y107040D01*
X84490D02*
X84890D01*
X84490Y106640D01*
Y106540D01*
X84590Y106440D01*
X84790D01*
X84890Y106540D01*
X103880Y39750D02*
Y39350D01*
X104180D01*
Y39550D01*
Y39350D01*
X104480D01*
Y39950D02*
Y40150D01*
Y40050D01*
X103880D01*
X103980Y39950D01*
X85700Y25880D02*
X85100D01*
Y26180D01*
X85200Y26280D01*
X85400D01*
X85500Y26180D01*
Y25880D01*
X85700Y26480D02*
Y26680D01*
Y26580D01*
X85100D01*
X85200Y26480D01*
X91170Y108080D02*
X90970D01*
X91070D01*
Y107580D01*
X90970Y107480D01*
X90870D01*
X90770Y107580D01*
X91670Y107480D02*
Y108080D01*
X91370Y107780D01*
X91770D01*
X39720Y50520D02*
X39520D01*
X39620D01*
Y50020D01*
X39520Y49920D01*
X39420D01*
X39320Y50020D01*
X39920Y50420D02*
X40020Y50520D01*
X40220D01*
X40320Y50420D01*
Y50320D01*
X40220Y50220D01*
X40120D01*
X40220D01*
X40320Y50120D01*
Y50020D01*
X40220Y49920D01*
X40020D01*
X39920Y50020D01*
X39720Y79260D02*
X39520D01*
X39620D01*
Y78760D01*
X39520Y78660D01*
X39420D01*
X39320Y78760D01*
X40320Y78660D02*
X39920D01*
X40320Y79060D01*
Y79160D01*
X40220Y79260D01*
X40020D01*
X39920Y79160D01*
X39720Y108020D02*
X39520D01*
X39620D01*
Y107520D01*
X39520Y107420D01*
X39420D01*
X39320Y107520D01*
X39920Y107420D02*
X40120D01*
X40020D01*
Y108020D01*
X39920Y107920D01*
X25700Y28716D02*
X25600Y28816D01*
X25400D01*
X25300Y28716D01*
Y28616D01*
X25400Y28516D01*
X25600D01*
X25700Y28416D01*
Y28316D01*
X25600Y28216D01*
X25400D01*
X25300Y28316D01*
X25900Y28216D02*
X26100D01*
X26000D01*
Y28816D01*
X25900Y28716D01*
X139325Y111600D02*
X139225Y111700D01*
X139025D01*
X138925Y111600D01*
Y111500D01*
X139025Y111400D01*
X139225D01*
X139325Y111300D01*
Y111200D01*
X139225Y111100D01*
X139025D01*
X138925Y111200D01*
X139925Y111100D02*
X139525D01*
X139925Y111500D01*
Y111600D01*
X139825Y111700D01*
X139625D01*
X139525Y111600D01*
X25300Y111050D02*
X25200Y111150D01*
X25000D01*
X24900Y111050D01*
Y110950D01*
X25000Y110850D01*
X25200D01*
X25300Y110750D01*
Y110650D01*
X25200Y110550D01*
X25000D01*
X24900Y110650D01*
X25500Y111050D02*
X25600Y111150D01*
X25800D01*
X25900Y111050D01*
Y110950D01*
X25800Y110850D01*
X25700D01*
X25800D01*
X25900Y110750D01*
Y110650D01*
X25800Y110550D01*
X25600D01*
X25500Y110650D01*
X139750Y28200D02*
X139650Y28300D01*
X139450D01*
X139350Y28200D01*
Y28100D01*
X139450Y28000D01*
X139650D01*
X139750Y27900D01*
Y27800D01*
X139650Y27700D01*
X139450D01*
X139350Y27800D01*
X140250Y27700D02*
Y28300D01*
X139950Y28000D01*
X140350D01*
X25350Y88850D02*
X25250Y88950D01*
X25050D01*
X24950Y88850D01*
Y88750D01*
X25050Y88650D01*
X25250D01*
X25350Y88550D01*
Y88450D01*
X25250Y88350D01*
X25050D01*
X24950Y88450D01*
X25950Y88950D02*
X25550D01*
Y88650D01*
X25750Y88750D01*
X25850D01*
X25950Y88650D01*
Y88450D01*
X25850Y88350D01*
X25650D01*
X25550Y88450D01*
X139800Y50850D02*
X139700Y50950D01*
X139500D01*
X139400Y50850D01*
Y50750D01*
X139500Y50650D01*
X139700D01*
X139800Y50550D01*
Y50450D01*
X139700Y50350D01*
X139500D01*
X139400Y50450D01*
X140400Y50950D02*
X140200Y50850D01*
X140000Y50650D01*
Y50450D01*
X140100Y50350D01*
X140300D01*
X140400Y50450D01*
Y50550D01*
X140300Y50650D01*
X140000D01*
X139650Y89050D02*
X139550Y89150D01*
X139350D01*
X139250Y89050D01*
Y88950D01*
X139350Y88850D01*
X139550D01*
X139650Y88750D01*
Y88650D01*
X139550Y88550D01*
X139350D01*
X139250Y88650D01*
X139850Y89150D02*
X140250D01*
Y89050D01*
X139850Y88650D01*
Y88550D01*
X25450Y50950D02*
X25350Y51050D01*
X25150D01*
X25050Y50950D01*
Y50850D01*
X25150Y50750D01*
X25350D01*
X25450Y50650D01*
Y50550D01*
X25350Y50450D01*
X25150D01*
X25050Y50550D01*
X25650Y50950D02*
X25750Y51050D01*
X25950D01*
X26050Y50950D01*
Y50850D01*
X25950Y50750D01*
X26050Y50650D01*
Y50550D01*
X25950Y50450D01*
X25750D01*
X25650Y50550D01*
Y50650D01*
X25750Y50750D01*
X25650Y50850D01*
Y50950D01*
X25750Y50750D02*
X25950D01*
X108950Y30100D02*
X109050Y30200D01*
Y30400D01*
X108950Y30500D01*
X108550D01*
X108450Y30400D01*
Y30200D01*
X108550Y30100D01*
X108450Y29900D02*
Y29700D01*
Y29800D01*
X109050D01*
X108950Y29900D01*
X108450Y28501D02*
X109050D01*
X108750Y28801D01*
Y28401D01*
X109050Y28201D02*
Y27801D01*
X108950D01*
X108550Y28201D01*
X108450D01*
X108850Y27601D02*
X108550D01*
X108450Y27501D01*
Y27201D01*
X108850D01*
X109050Y26601D02*
Y27001D01*
X108750D01*
Y26801D01*
Y27001D01*
X108450D01*
X86950Y43100D02*
Y43700D01*
X87250D01*
X87350Y43600D01*
Y43400D01*
X87250Y43300D01*
X86950D01*
X87150D02*
X87350Y43100D01*
X87550D02*
X87850D01*
X87950Y43200D01*
X87850Y43300D01*
X87650D01*
X87550Y43400D01*
X87650Y43500D01*
X87950D01*
X88450Y43100D02*
X88250D01*
X88150Y43200D01*
Y43400D01*
X88250Y43500D01*
X88450D01*
X88549Y43400D01*
Y43300D01*
X88150D01*
X88849Y43600D02*
Y43500D01*
X88749D01*
X88949D01*
X88849D01*
Y43200D01*
X88949Y43100D01*
D31*
X77450Y39550D02*
Y41050D01*
X72950D02*
X77450D01*
X72950Y39550D02*
X77450D01*
X72950D02*
Y41050D01*
X83721Y112562D02*
X83879D01*
X83721Y112838D02*
X83879D01*
X104364Y28850D02*
Y29834D01*
X108136D01*
Y27866D02*
Y29834D01*
X104364Y27866D02*
X108136D01*
X104364D02*
Y28850D01*
X87521Y42438D02*
X87679D01*
X87521Y42162D02*
X87679D01*
X83721Y107538D02*
X83879D01*
X83721Y107262D02*
X83879D01*
M02*
